<?xml version="1.0" encoding="utf-8"?>
<!-- Generator: Adobe Illustrator 24.3.0, SVG Export Plug-In . SVG Version: 6.00 Build 0)  -->
<svg version="1.1" id="Layer_1" xmlns="http://www.w3.org/2000/svg" xmlns:xlink="http://www.w3.org/1999/xlink" x="0px" y="0px"
	 viewBox="0 0 595.28 841.89" style="enable-background:new 0 0 595.28 841.89;" xml:space="preserve">
<style type="text/css">
	.st0{clip-path:url(#SVGID_2_);}
	.st1{clip-path:url(#SVGID_4_);fill:#EBEBEB;}
	.st2{clip-path:url(#SVGID_4_);}
	.st3{clip-path:url(#SVGID_6_);fill:#EBEBEB;}
	.st4{clip-path:url(#SVGID_6_);fill:#E0E0E0;}
	.st5{clip-path:url(#SVGID_6_);fill:#F1F0F0;}
	.st6{opacity:0.9;clip-path:url(#SVGID_8_);}
	.st7{clip-path:url(#SVGID_12_);fill:#F5F5F5;}
	.st8{clip-path:url(#SVGID_14_);fill:#263238;}
	.st9{clip-path:url(#SVGID_16_);fill:#263238;}
	.st10{clip-path:url(#SVGID_16_);fill:#5474B7;}
	.st11{opacity:0.3;clip-path:url(#SVGID_16_);}
	.st12{clip-path:url(#SVGID_18_);fill:#5474B7;}
	.st13{clip-path:url(#SVGID_16_);fill:#FFFFFF;}
	.st14{clip-path:url(#SVGID_20_);fill:#263238;}
	.st15{clip-path:url(#SVGID_20_);fill:#FFFFFF;}
	.st16{clip-path:url(#SVGID_20_);fill:#5474B7;}
	.st17{opacity:0.3;clip-path:url(#SVGID_20_);}
	.st18{clip-path:url(#SVGID_22_);fill:#FFFFFF;}
	.st19{clip-path:url(#SVGID_24_);fill:#FFFFFF;}
	.st20{opacity:0.2;clip-path:url(#SVGID_20_);}
	.st21{clip-path:url(#SVGID_26_);fill:#020302;}
	.st22{clip-path:url(#SVGID_28_);fill:#020302;}
	.st23{clip-path:url(#SVGID_30_);fill:#020302;}
	.st24{clip-path:url(#SVGID_32_);fill:#263238;}
	.st25{clip-path:url(#SVGID_32_);fill:#5474B7;}
</style>
<g>
	<g>
		<defs>
			<rect id="SVGID_1_" x="47.18" y="170.79" width="500" height="500"/>
		</defs>
		<clipPath id="SVGID_2_">
			<use xlink:href="#SVGID_1_"  style="overflow:visible;"/>
		</clipPath>
		<g class="st0">
			<defs>
				<rect id="SVGID_3_" x="47.18" y="170.79" width="500" height="500"/>
			</defs>
			<clipPath id="SVGID_4_">
				<use xlink:href="#SVGID_3_"  style="overflow:visible;"/>
			</clipPath>
			<rect x="47.18" y="553.19" class="st1" width="500" height="0.25"/>
			<rect x="475.4" y="569.29" class="st1" width="21.68" height="0.25"/>
			<rect x="357.74" y="564.1" class="st1" width="34.11" height="0.25"/>
			<rect x="443.77" y="560" class="st1" width="44.52" height="0.25"/>
			<rect x="209.06" y="565.04" class="st1" width="11.14" height="0.25"/>
			<rect x="161.76" y="565.04" class="st1" width="38.39" height="0.25"/>
			<rect x="113.49" y="560.82" class="st1" width="27.7" height="0.25"/>
			<g class="st2">
				<defs>
					<rect id="SVGID_5_" x="47.18" y="170.79" width="500" height="500"/>
				</defs>
				<clipPath id="SVGID_6_">
					<use xlink:href="#SVGID_5_"  style="overflow:visible;"/>
				</clipPath>
				<path class="st3" d="M284.19,508.59H91.09c-3.15,0-5.71-2.56-5.71-5.71V231.45c0-3.15,2.56-5.71,5.71-5.71h193.1
					c3.15,0,5.71,2.56,5.71,5.71v271.43C289.9,506.03,287.34,508.59,284.19,508.59 M91.09,226c-3.01,0-5.46,2.45-5.46,5.46v271.43
					c0,3.01,2.45,5.46,5.46,5.46h193.1c3.01,0,5.46-2.45,5.46-5.46V231.45c0-3.01-2.45-5.46-5.46-5.46H91.09z"/>
				<path class="st3" d="M500.49,508.59h-193.1c-3.15,0-5.71-2.56-5.71-5.71V231.45c0-3.15,2.56-5.71,5.71-5.71h193.1
					c3.15,0,5.71,2.56,5.71,5.71v271.43C506.2,506.03,503.64,508.59,500.49,508.59 M307.39,226c-3.01,0-5.46,2.45-5.46,5.46v271.43
					c0,3.01,2.45,5.46,5.46,5.46h193.1c3.01,0,5.46-2.45,5.46-5.46V231.45c0-3.01-2.45-5.46-5.46-5.46H307.39z"/>
				<path class="st3" d="M263.25,371.67l0.45-13.14l-8.07-2.64c-0.33-4.49-1.08-8.92-2.15-13.2l6.84-5.04l-4.64-12.34l-8.46,0.68
					c-2.01-3.99-4.39-7.79-7.04-11.35l4.38-7.31l-9.01-9.61l-7.56,3.87c-3.41-2.89-7-5.52-10.84-7.83l1.23-8.39l-12-5.45l-5.5,6.44
					c-4.19-1.36-8.53-2.38-13.02-3.05l-2.04-8.23l-13.18-0.45l-2.6,8.07c-4.53,0.36-8.92,1.08-13.2,2.15l-5.08-6.8l-12.34,4.61
					l0.68,8.46c-3.99,2.05-7.79,4.42-11.35,7.07l-7.28-4.38l-9.64,8.97l3.87,7.6c-2.89,3.37-5.52,7-7.8,10.84l-8.39-1.26
					l-5.48,11.99l6.48,5.5c-1.36,4.19-2.41,8.56-3.05,13.02l-8.26,2.08l-0.45,13.14l8.1,2.64c0.33,4.52,1.08,8.92,2.15,13.19
					l-6.84,5.04l4.64,12.35l8.46-0.68c2.02,3.99,4.39,7.79,7.04,11.35l-4.38,7.31l9.01,9.61l7.56-3.87c3.37,2.89,7,5.52,10.84,7.84
					l-1.26,8.39l12,5.45l5.53-6.44c4.19,1.36,8.53,2.38,13.02,3.05l2.04,8.23l13.18,0.45l2.6-8.07c4.52-0.37,8.92-1.08,13.19-2.15
					l5.04,6.8l12.34-4.61l-0.65-8.46c3.99-2.05,7.75-4.42,11.35-7.08l7.28,4.38l9.65-8.97l-3.87-7.6c2.89-3.37,5.52-7,7.8-10.84
					l8.39,1.26l5.48-12l-6.48-5.5c1.36-4.19,2.41-8.53,3.05-13.02L263.25,371.67z M174.46,414.24
					c-28.78-0.99-51.31-25.12-50.33-53.9c0.99-28.81,25.12-51.35,53.9-50.36c28.78,0.99,51.31,25.12,50.33,53.93
					C227.37,392.7,203.23,415.23,174.46,414.24"/>
				<path class="st3" d="M488.14,328.22l3.31-3.1l-1.32-2.61c1.01-1.18,1.91-2.44,2.69-3.74l2.9,0.44l1.88-4.14l-2.23-1.89
					c0.48-1.46,0.83-2.97,1.05-4.48l2.85-0.71l0.15-4.54l-2.79-0.9c-0.12-1.54-0.36-3.05-0.73-4.55l2.35-1.75l-1.6-4.25l-2.91,0.23
					c-0.69-1.35-1.5-2.66-2.43-3.92l1.51-2.51l-3.1-3.32l-2.6,1.33c-1.19-1.01-2.44-1.91-3.74-2.69l0.42-2.9l-4.13-1.89l-1.9,2.23
					c-1.47-0.47-2.98-0.82-4.49-1.04l-0.71-2.84l-4.54-0.16l-0.91,2.8c-1.53,0.12-3.05,0.36-4.55,0.74l-1.74-2.35l-4.26,1.59
					l0.24,2.92c-1.35,0.69-2.68,1.5-3.92,2.43l-2.52-1.51l-3.31,3.1l1.33,2.62c-1.02,1.18-1.91,2.44-2.69,3.74l-2.9-0.44l-1.88,4.14
					l2.23,1.9c-0.48,1.46-0.83,2.97-1.05,4.48l-2.85,0.71l-0.15,4.54l2.79,0.9c0.12,1.53,0.36,3.05,0.73,4.55l-2.35,1.74l1.6,4.25
					l2.92-0.22c0.69,1.35,1.5,2.66,2.43,3.92l-1.51,2.51l3.1,3.32l2.6-1.33c1.19,1.01,2.44,1.91,3.74,2.69l-0.43,2.89l4.13,1.89
					l1.9-2.22c1.47,0.47,2.97,0.81,4.49,1.04l0.71,2.84l4.54,0.16l0.91-2.8c1.53-0.12,3.05-0.36,4.55-0.74l1.74,2.35l4.26-1.59
					l-0.24-2.92c1.35-0.69,2.67-1.49,3.92-2.43L488.14,328.22z M464.52,309.09c-2.44-2.61-2.3-6.7,0.31-9.14
					c2.61-2.44,6.71-2.3,9.15,0.31c2.44,2.61,2.3,6.7-0.32,9.15C471.05,311.84,466.96,311.7,464.52,309.09"/>
				<path class="st3" d="M367.17,463.13l-10.34-7.14c0-0.01,0-0.02-0.01-0.02c-1.02-3.76-2.43-7.37-4.16-10.77l2.65-10.4l-15-16.07
					l-10.56,1.93c-3.27-1.95-6.78-3.61-10.45-4.88c-0.01,0-0.02,0-0.03-0.01l-6.42-10.81l-21.96-0.75l-7.14,10.34
					c-0.01,0-0.03,0.01-0.04,0.01c-3.75,1.02-7.36,2.43-10.76,4.15l-10.39-2.65l-16.06,15l1.93,10.54c0,0,0,0.01-0.01,0.01
					c-1.99,3.31-3.61,6.82-4.88,10.49l-10.81,6.42l-0.75,21.97l10.35,7.15c1.02,3.78,2.39,7.39,4.15,10.82c0,0,0,0,0,0l-2.64,10.37
					l15,16.06l10.49-1.92c3.31,1.96,6.82,3.61,10.55,4.89c0,0,0.01,0,0.01,0l6.41,10.79l21.96,0.75l7.14-10.33
					c3.8-1.02,7.42-2.43,10.85-4.16c0,0,0,0,0,0l10.35,2.64l16.06-15l-1.93-10.54c1.99-3.31,3.61-6.82,4.88-10.49c0,0,0,0,0,0
					l10.81-6.42L367.17,463.13z M298.72,496.52c-13.65-0.47-24.32-11.93-23.85-25.55c0.47-13.65,11.89-24.32,25.55-23.85
					c13.65,0.47,24.32,11.89,23.85,25.54C323.8,486.28,312.37,496.99,298.72,496.52"/>
				<path class="st3" d="M390.73,400.75c-0.02,0-0.05,0-0.07,0l-17.32-0.59c-0.72-0.02-1.38-0.41-1.74-1.03l-4.66-7.85
					c-2.48-0.9-4.92-2.03-7.28-3.38l-7.51,1.37c-0.71,0.13-1.43-0.11-1.92-0.64l-11.83-12.66c-0.49-0.53-0.68-1.27-0.5-1.96
					l1.89-7.41c-1.15-2.35-2.11-4.85-2.86-7.47l-7.53-5.2c-0.59-0.41-0.93-1.09-0.91-1.81l0.59-17.32c0.02-0.72,0.41-1.38,1.03-1.74
					l7.87-4.67c0.93-2.55,2.06-4.99,3.37-7.25l-1.38-7.53c-0.13-0.71,0.11-1.43,0.64-1.92l12.67-11.83c0.53-0.49,1.27-0.68,1.96-0.5
					l7.43,1.89c2.4-1.17,4.9-2.13,7.45-2.87l5.2-7.52c0.41-0.59,1.08-0.96,1.81-0.91l17.32,0.59c0.72,0.02,1.38,0.41,1.74,1.03
					l4.67,7.87c2.48,0.91,4.91,2.04,7.23,3.37l7.55-1.38c0.71-0.13,1.43,0.11,1.92,0.64l11.83,12.67c0.49,0.53,0.68,1.26,0.5,1.96
					l-1.89,7.44c1.17,2.41,2.13,4.9,2.87,7.45l7.52,5.2c0.59,0.41,0.93,1.09,0.91,1.81l-0.59,17.32c-0.02,0.72-0.41,1.38-1.03,1.74
					l-7.87,4.67c-0.93,2.55-2.06,4.98-3.37,7.24l1.38,7.54c0.13,0.71-0.11,1.43-0.64,1.92l-12.66,11.82
					c-0.53,0.49-1.26,0.68-1.96,0.5l-7.4-1.89c-2.44,1.18-4.95,2.14-7.49,2.87l-5.19,7.52
					C392.07,400.41,391.42,400.75,390.73,400.75 M374.64,395.97l15.01,0.51l4.97-7.2c0.28-0.41,0.7-0.71,1.19-0.84
					c2.76-0.74,5.51-1.8,8.15-3.13c0.01,0,0.01,0,0.01-0.01c0.44-0.22,0.96-0.28,1.46-0.15l7.04,1.79l10.98-10.25l-1.31-7.17
					c-0.09-0.51,0-1.03,0.27-1.47c1.45-2.4,2.68-5.04,3.65-7.83c0.16-0.5,0.5-0.91,0.94-1.17l7.52-4.47l0.52-15.01l-7.2-4.98
					c-0.38-0.26-0.66-0.64-0.8-1.07c-0.02-0.05-0.03-0.11-0.05-0.17c-0.75-2.76-1.8-5.47-3.11-8.05c-0.23-0.46-0.29-0.98-0.16-1.48
					l1.8-7.08l-10.25-10.98l-7.19,1.32c-0.5,0.09-1.02,0-1.46-0.26c-2.5-1.49-5.14-2.73-7.85-3.67c-0.15-0.05-0.31-0.12-0.44-0.2
					c-0.29-0.18-0.54-0.43-0.71-0.72l-4.47-7.53l-15.01-0.52l-4.97,7.2c-0.3,0.43-0.74,0.73-1.24,0.85
					c-2.78,0.76-5.48,1.8-8.05,3.11c-0.46,0.23-0.98,0.29-1.48,0.16l-7.07-1.8l-10.98,10.25l1.31,7.17
					c0.08,0.45,0.02,0.92-0.19,1.33c-0.03,0.06-0.06,0.11-0.09,0.17c-1.45,2.41-2.68,5.05-3.65,7.86c-0.16,0.47-0.49,0.87-0.92,1.12
					l-7.53,4.47l-0.51,15.01l7.21,4.98c0.41,0.28,0.71,0.7,0.84,1.19c0.78,2.88,1.82,5.61,3.11,8.12c0.08,0.14,0.13,0.3,0.17,0.45
					c0.09,0.34,0.09,0.69,0,1.03l-1.8,7.05l10.25,10.98l7.14-1.3c0.5-0.09,1.02,0,1.45,0.26c2.55,1.51,5.2,2.74,7.89,3.67
					c0.49,0.15,0.91,0.48,1.17,0.93L374.64,395.97z M399.42,301.16L399.42,301.16L399.42,301.16z M383.91,377.01
					c-0.37,0-0.74-0.01-1.11-0.02c-17.45-0.6-31.15-15.28-30.55-32.72c0.6-17.45,15.3-31.15,32.72-30.56
					c17.45,0.6,31.15,15.28,30.56,32.72c-0.29,8.44-3.85,16.27-10.03,22.04C399.58,374,391.95,377.01,383.91,377.01 M383.87,317.91
					c-14.7,0-26.9,11.7-27.41,26.5c-0.52,15.12,11.36,27.84,26.48,28.36c7.32,0.24,14.31-2.37,19.67-7.38
					c5.35-5,8.44-11.79,8.69-19.1c0.52-15.12-11.36-27.84-26.48-28.36C384.5,317.92,384.18,317.91,383.87,317.91"/>
				<polygon class="st4" points="430.62,276.12 423.44,274.19 421.52,267.02 424.33,264.21 427.29,270.35 433.43,273.31 				"/>
				<path class="st4" d="M431.06,271.32c1.31-1.31,1.31-3.44,0-4.74c-1.31-1.31-3.43-1.3-4.73,0.01l3.57-5.35l4.79,2.42l1.05,5.03
					L431.06,271.32z"/>
				<path class="st5" d="M423.76,264.78l5.26-5.26l7.17,1.93l1.93,7.17l-5.26,5.26l-7.17-1.93L423.76,264.78z M433.31,269.07
					c1.31-1.31,1.31-3.44,0-4.74c-1.31-1.31-3.43-1.3-4.73,0.01c-1.31,1.31-1.31,3.42,0,4.72
					C429.88,270.37,432,270.38,433.31,269.07"/>
				<polygon class="st4" points="137.4,467.5 141.25,466.47 142.28,462.62 140.78,461.11 139.19,464.4 135.89,466 				"/>
				<path class="st4" d="M137.16,464.93c-0.7-0.7-0.7-1.84,0-2.55c0.7-0.7,1.84-0.7,2.54,0.01l-1.91-2.87l-2.57,1.3l-0.56,2.7
					L137.16,464.93z"/>
				<path class="st5" d="M141.08,461.42l-2.82-2.82l-3.85,1.03l-1.03,3.85l2.82,2.82l3.85-1.03L141.08,461.42z M135.96,463.72
					c-0.7-0.7-0.7-1.84,0-2.54s1.84-0.7,2.54,0.01c0.7,0.7,0.7,1.83,0,2.54C137.8,464.42,136.66,464.42,135.96,463.72"/>
				<path class="st5" d="M123.54,256.46l3.19,3.2c0.83,0.83,2.19,0.83,3.02,0s0.83-2.19,0-3.02l-3.19-3.19
					c-0.83-0.83-2.19-0.83-3.02,0C122.71,254.26,122.71,255.63,123.54,256.46"/>
				<path class="st4" d="M121.29,248.5c2.46-0.88,5.13,0.27,5.96,2.58c0.83,2.31-0.49,4.9-2.96,5.78c-2.46,0.88-5.13-0.27-5.96-2.58
					C117.51,251.97,118.83,249.38,121.29,248.5"/>
				
					<rect x="117.74" y="252" transform="matrix(0.9412 -0.3378 0.3378 0.9412 -78.1412 56.3356)" class="st5" width="10.1" height="1.37"/>
			</g>
			<g class="st2">
				<defs>
					<rect id="SVGID_7_" x="47.18" y="170.79" width="500" height="500"/>
				</defs>
				<clipPath id="SVGID_8_">
					<use xlink:href="#SVGID_7_"  style="overflow:visible;"/>
				</clipPath>
				<g class="st6">
					<g>
						<defs>
							<rect id="SVGID_9_" x="100.58" y="253.14" width="393.8" height="247.84"/>
						</defs>
						<clipPath id="SVGID_10_">
							<use xlink:href="#SVGID_9_"  style="overflow:visible;"/>
						</clipPath>
					</g>
				</g>
			</g>
			<g class="st2">
				<defs>
					<rect id="SVGID_11_" x="47.18" y="170.79" width="500" height="500"/>
				</defs>
				<clipPath id="SVGID_12_">
					<use xlink:href="#SVGID_11_"  style="overflow:visible;"/>
				</clipPath>
				<path class="st7" d="M491.07,587.03c0,6.25-86.81,11.32-193.89,11.32s-193.89-5.07-193.89-11.32
					c0-6.25,86.81-11.32,193.89-11.32S491.07,580.78,491.07,587.03"/>
			</g>
			<g class="st2">
				<defs>
					<rect id="SVGID_13_" x="47.18" y="170.79" width="500" height="500"/>
				</defs>
				<clipPath id="SVGID_14_">
					<use xlink:href="#SVGID_13_"  style="overflow:visible;"/>
				</clipPath>
				<path class="st8" d="M133.9,291.44c-1-4.4-0.55-8.11,1.34-11.12c1.9-3.01,5.03-5.01,9.41-6.01c4.49-1.02,8.22-0.6,11.2,1.26
					c2.98,1.86,4.96,4.96,5.95,9.3c0.72,3.15,0.77,5.86,0.17,8.12c-0.6,2.26-1.78,4.18-3.53,5.76c-1.75,1.58-4.12,2.71-7.12,3.39
					c-3.04,0.69-5.67,0.78-7.88,0.27c-2.21-0.52-4.18-1.68-5.89-3.5C135.83,297.08,134.61,294.59,133.9,291.44 M142.24,289.58
					c0.62,2.72,1.57,4.57,2.85,5.52c1.28,0.96,2.79,1.24,4.54,0.85c1.79-0.41,3.04-1.3,3.76-2.69c0.72-1.39,0.73-3.59,0.05-6.61
					c-0.58-2.54-1.51-4.28-2.8-5.22c-1.29-0.94-2.81-1.21-4.57-0.81c-1.68,0.38-2.9,1.28-3.64,2.7
					C141.68,284.75,141.61,286.84,142.24,289.58"/>
				<path class="st8" d="M165.77,288.14c-0.68-2.98-0.23-5.67,1.34-8.06c1.57-2.39,4.07-3.97,7.49-4.75
					c3.91-0.89,7.13-0.43,9.64,1.39c2.02,1.46,3.34,3.53,3.94,6.21c0.68,3.01,0.25,5.7-1.31,8.07c-1.56,2.37-4.1,3.96-7.62,4.76
					c-3.14,0.71-5.86,0.49-8.16-0.66C168.28,293.66,166.5,291.34,165.77,288.14 M173.28,286.42c0.4,1.74,1.04,2.95,1.94,3.62
					c0.89,0.67,1.88,0.89,2.94,0.65c1.08-0.25,1.87-0.86,2.38-1.84c0.51-0.98,0.55-2.38,0.14-4.19c-0.38-1.69-1.02-2.88-1.91-3.54
					c-0.89-0.67-1.85-0.89-2.88-0.65c-1.09,0.25-1.9,0.87-2.42,1.88C172.95,283.34,172.89,284.7,173.28,286.42"/>
				<path class="st8" d="M195.76,299.36l-6.13-26.98l7.01-1.6l0.66,2.89c0.69-1.43,1.4-2.46,2.11-3.07c0.96-0.82,2.1-1.39,3.43-1.69
					c2.61-0.6,4.86-0.05,6.74,1.62c1.88,1.68,3.16,3.99,3.83,6.93c0.74,3.25,0.52,5.91-0.64,7.97c-1.17,2.07-2.94,3.37-5.32,3.91
					c-1.15,0.26-2.25,0.3-3.29,0.13c-1.04-0.18-2.02-0.57-2.95-1.17l2.12,9.33L195.76,299.36z M199.37,280.5
					c0.35,1.55,0.94,2.62,1.76,3.22c0.82,0.6,1.73,0.79,2.72,0.56c0.87-0.2,1.52-0.72,1.94-1.57c0.43-0.85,0.44-2.14,0.05-3.85
					c-0.36-1.58-0.93-2.67-1.71-3.28c-0.78-0.6-1.61-0.8-2.5-0.6c-0.96,0.22-1.67,0.77-2.14,1.67
					C199.03,277.54,198.99,278.82,199.37,280.5"/>
				<path class="st8" d="M216.61,281.09l7.27-2.39c0.51,0.81,1.08,1.35,1.72,1.6c0.64,0.25,1.42,0.28,2.34,0.07
					c1.01-0.23,1.74-0.62,2.19-1.17c0.36-0.42,0.48-0.86,0.37-1.34c-0.12-0.54-0.5-0.89-1.13-1.06c-0.45-0.12-1.59-0.13-3.4-0.04
					c-2.7,0.14-4.6,0.13-5.71-0.03c-1.1-0.16-2.1-0.62-3-1.38c-0.9-0.76-1.49-1.73-1.76-2.91c-0.29-1.29-0.17-2.48,0.37-3.58
					c0.54-1.1,1.41-2.03,2.62-2.79c1.21-0.76,2.92-1.39,5.12-1.89c2.33-0.53,4.09-0.74,5.28-0.64c1.19,0.1,2.24,0.45,3.15,1.02
					c0.91,0.58,1.76,1.45,2.54,2.62l-6.94,2.31c-0.33-0.59-0.74-0.98-1.23-1.17c-0.68-0.26-1.43-0.29-2.27-0.1
					c-0.85,0.19-1.43,0.48-1.75,0.87c-0.32,0.39-0.43,0.8-0.33,1.22c0.11,0.48,0.44,0.78,0.98,0.92c0.55,0.14,1.66,0.11,3.35-0.07
					c2.55-0.28,4.5-0.31,5.82-0.09c1.33,0.23,2.42,0.73,3.28,1.52c0.86,0.79,1.41,1.74,1.66,2.85c0.26,1.13,0.17,2.3-0.27,3.52
					c-0.44,1.22-1.32,2.31-2.64,3.28c-1.32,0.96-3.25,1.73-5.77,2.31c-3.57,0.81-6.23,0.88-7.97,0.21
					C218.77,284.1,217.47,282.87,216.61,281.09"/>
				<path class="st8" d="M241.03,256.36l8.21-0.05l0.03,6.3l-1.51,12.67l-5.08,0.03l-1.62-12.65L241.03,256.36z M241.43,277.25
					l7.66-0.04l0.04,6.77l-7.66,0.04L241.43,277.25z"/>
			</g>
			<g class="st2">
				<defs>
					<rect id="SVGID_15_" x="47.18" y="170.79" width="500" height="500"/>
				</defs>
				<clipPath id="SVGID_16_">
					<use xlink:href="#SVGID_15_"  style="overflow:visible;"/>
				</clipPath>
				<path class="st9" d="M175.86,342.38c-0.06,0-0.12-0.01-0.18-0.03c-4.5-1.74-7.19-3.45-8.59-5.49c-1.02,0.2-2.15,0.07-3.23-0.45
					c-1.05-0.5-2.06-1.37-2.78-2.62c-0.68,0.52-1.51,0.66-2.43,0.38c-1.02-0.32-2.07-1.18-2.95-2.41c-0.56,0.4-1.13,0.46-1.55,0.43
					c-2.97-0.24-7-6.16-7.29-12.47c-0.01-0.27,0.2-0.51,0.48-0.52c0.27-0.02,0.51,0.2,0.52,0.48c0.27,5.99,4.11,11.33,6.37,11.52
					c0.37,0.04,0.68-0.08,0.93-0.28c-1.36-2.38-2.06-5.78-1.02-9.41c0.86-3.01,1.62-4.18,2.53-3.96c1.72,0.43,1.5,6.97,0.59,11.29
					c-0.21,0.98-0.51,1.68-0.85,2.18c0.79,1.17,1.72,1.95,2.54,2.21c0.73,0.23,1.27,0.04,1.67-0.35c-0.79-1.93-0.95-4.57,0.12-7.94
					c1.4-4.43,1.97-4.55,2.31-4.62c0.24-0.05,0.47,0.03,0.64,0.22c0.92,1.04-0.18,7.92-1.34,11.32c-0.15,0.44-0.34,0.83-0.56,1.16
					c0.62,1.22,1.54,2.05,2.49,2.5c0.77,0.36,1.56,0.5,2.27,0.43c-0.09-0.19-0.17-0.38-0.24-0.58c-0.79-2.15-0.41-4.62,1.18-7.58
					c1.05-1.96,1.92-2.87,2.71-2.87h0c0.24,0,0.68,0.09,0.99,0.66c0.87,1.61,0.24,6.92-1.48,9.55c-0.41,0.62-0.97,1.09-1.62,1.4
					c1.34,1.76,3.88,3.31,7.95,4.89c0.26,0.1,0.39,0.39,0.29,0.65C176.25,342.25,176.06,342.38,175.86,342.38 M170.21,325.91
					c0,0-0.57,0-1.83,2.35c-1.45,2.68-1.82,4.89-1.13,6.76c0.08,0.23,0.18,0.45,0.3,0.67c0.53-0.23,0.99-0.6,1.32-1.11
					c1.4-2.14,2.07-6.54,1.55-8.26C170.32,325.97,170.21,325.91,170.21,325.91 M163.03,321.69c-0.26,0.49-0.69,1.48-1.34,3.53
					c-0.86,2.71-0.86,4.88-0.38,6.55c0.03-0.08,0.06-0.17,0.09-0.25C162.58,328.08,163.15,323.34,163.03,321.69 M156.45,318.54
					c-0.17,0.16-0.65,0.79-1.35,3.22c-0.92,3.21-0.35,6.14,0.73,8.25c0.21-0.43,0.35-0.93,0.45-1.4
					C157.31,323.7,157.01,319.25,156.45,318.54"/>
				<path class="st9" d="M213.88,394.79c-1.53,0-3.13-0.35-4.56-1.19c-0.24-0.14-0.32-0.45-0.18-0.68c0.14-0.24,0.45-0.32,0.68-0.18
					c3.57,2.1,8.18,0.63,9.13-0.89c0.11-0.18,0.21-0.41,0.15-0.67c-1.41,0.15-3.15-0.22-5.13-1.46c-2.54-1.59-2.74-2.06-2.73-2.44
					c0.01-0.22,0.14-0.42,0.34-0.52c0.99-0.5,5.51,1.57,7.39,2.81c0.25,0.16,0.45,0.34,0.62,0.52c0.83-0.2,1.48-0.63,1.9-1.15
					c0.29-0.35,0.49-0.74,0.59-1.12c-0.07,0.01-0.13,0.02-0.2,0.02c-1.6,0.16-3.2-0.53-4.91-2.11c-1.17-1.08-1.63-1.83-1.48-2.43
					c0.05-0.19,0.21-0.52,0.72-0.65c1.38-0.34,4.8,1.11,6.19,2.64c0.32,0.34,0.53,0.75,0.64,1.18c1.31-0.61,2.68-1.99,4.32-4.27
					c0.16-0.23,0.47-0.28,0.7-0.12c0.22,0.16,0.28,0.47,0.12,0.7c-1.89,2.64-3.46,4.14-5.05,4.75c-0.06,0.7-0.35,1.42-0.87,2.04
					c-0.51,0.61-1.25,1.13-2.18,1.41c0.1,0.45,0.01,0.93-0.28,1.39C218.96,393.73,216.54,394.79,213.88,394.79 M212.99,387.86
					c0.34,0.25,0.82,0.58,1.51,1.01c1.36,0.85,2.57,1.24,3.6,1.32C216.44,389.16,214.27,388.25,212.99,387.86 M216.48,383.61
					c0.06,0.16,0.28,0.57,1.17,1.39c1.49,1.37,2.84,1.99,4.13,1.84c0.11-0.01,0.21-0.03,0.32-0.05c-0.07-0.3-0.22-0.58-0.43-0.83
					C220.25,384.42,217.16,383.45,216.48,383.61"/>
				<path class="st10" d="M227.12,393.42l-15.58,2.83l-14.15-77.21l-30.06,5.46l-48.99,87l5.26,28.71l62.84-11.41l4.3,23.48
					l30.06-5.46l-4.3-23.48l15.58-2.83L227.12,393.42z M148.27,407.74l25.96-45.57l7.24,39.54L148.27,407.74z"/>
				<path class="st10" d="M352.61,313.79c-0.58-5.33-1.65-10.07-3.2-14.22c-1.55-4.14-3.88-8.21-6.99-12.19
					c-3.11-3.98-7.35-7.44-12.7-10.37c-5.36-2.93-12.43-4.97-21.22-6.11c-18.29-2.38-32.55,0.86-42.78,9.74
					c-10.23,8.88-16.96,25.88-20.2,51.01c-1.32,10.22-1.64,19.67-0.98,28.34c0.66,8.68,2.26,15.65,4.78,20.93
					c3.45,7.42,8.33,13.34,14.65,17.77c6.31,4.43,14.96,7.36,25.95,8.79c19.6,2.55,34.12-1.21,43.57-11.29
					c9.45-10.08,15.72-27.11,18.81-51.1C353.67,334.4,353.77,323.96,352.61,313.79"/>
				<path class="st9" d="M298.95,397.23c-2.4-0.08-4.96-0.3-7.61-0.64c-9.15-1.19-16.24-3.51-21.05-6.89
					c-4.75-3.33-8.35-7.72-10.99-13.41l-0.05-0.1c-1.92-4.02-3.18-9.75-3.74-17.03c-0.6-7.89-0.3-16.67,0.92-26.1
					c3.57-27.72,10.94-39.29,16.5-44.11c6.48-5.62,15.22-8.16,26.73-7.77c2.36,0.08,4.85,0.29,7.42,0.62
					c7.39,0.96,13.23,2.6,17.37,4.86c4.01,2.19,7.14,4.71,9.31,7.49c2.4,3.08,4.2,6.19,5.35,9.27c1.22,3.27,2.09,7.16,2.56,11.56
					c1.07,9.31,0.97,18.95-0.29,28.72c-2.77,21.54-8.13,36.67-15.92,44.98C319.68,394.85,311.01,397.64,298.95,397.23
					C298.95,397.23,298.95,397.23,298.95,397.23"/>
				<path class="st10" d="M318.52,314.08l0.13-3.79l-2.33-0.76c-0.09-1.29-0.31-2.57-0.62-3.8l1.97-1.45l-1.34-3.56l-2.44,0.2
					c-0.58-1.15-1.26-2.24-2.03-3.27l1.26-2.11l-2.6-2.77l-2.18,1.12c-0.98-0.83-2.02-1.59-3.12-2.26l0.35-2.42l-3.46-1.57
					l-1.58,1.86c-1.21-0.39-2.46-0.69-3.75-0.88l-0.59-2.37l-3.8-0.13l-0.75,2.33c-1.3,0.11-2.57,0.31-3.8,0.62l-1.46-1.96
					l-3.56,1.33l0.2,2.44c-1.15,0.59-2.25,1.27-3.27,2.04l-2.1-1.26l-2.78,2.59l1.12,2.19c-0.83,0.97-1.59,2.02-2.25,3.12
					l-2.42-0.36l-1.58,3.46l1.87,1.58c-0.39,1.21-0.7,2.47-0.88,3.75l-2.38,0.6l-0.13,3.79l2.34,0.76c0.1,1.3,0.31,2.57,0.62,3.8
					l-1.97,1.45l1.34,3.56l2.44-0.2c0.58,1.15,1.26,2.24,2.03,3.27l-1.26,2.11l2.6,2.77l2.18-1.12c0.97,0.83,2.02,1.59,3.12,2.26
					l-0.36,2.42l3.46,1.57l1.6-1.86c1.21,0.39,2.46,0.68,3.75,0.88l0.59,2.37l3.8,0.13l0.75-2.33c1.3-0.1,2.57-0.31,3.8-0.62
					l1.45,1.96l3.56-1.33l-0.19-2.44c1.15-0.59,2.24-1.27,3.27-2.04l2.1,1.26l2.78-2.59l-1.12-2.19c0.83-0.97,1.59-2.02,2.25-3.12
					l2.42,0.36l1.58-3.46l-1.87-1.58c0.39-1.21,0.7-2.46,0.88-3.75L318.52,314.08z M292.92,326.35c-8.3-0.28-14.79-7.24-14.51-15.54
					c0.29-8.3,7.24-14.8,15.54-14.52c8.29,0.28,14.79,7.24,14.51,15.54C308.17,320.14,301.22,326.64,292.92,326.35"/>
				<g class="st11">
					<g>
						<defs>
							<rect id="SVGID_17_" x="300.46" y="363.46" width="34.12" height="34.13"/>
						</defs>
						<clipPath id="SVGID_18_">
							<use xlink:href="#SVGID_17_"  style="overflow:visible;"/>
						</clipPath>
						<path class="st12" d="M334.3,383.66l0.27-2.55l-1.54-0.63c-0.01-0.88-0.08-1.75-0.23-2.59l1.4-0.89l-0.71-2.47l-1.66,0.01
							c-0.34-0.81-0.73-1.58-1.2-2.31l0.95-1.36l-1.6-2l-1.53,0.64c-0.61-0.61-1.27-1.17-1.99-1.67l0.37-1.63l-2.25-1.23l-1.18,1.19
							c-0.81-0.34-1.64-0.6-2.48-0.79l-0.28-1.64l-2.55-0.29l-0.63,1.53c-0.88,0.01-1.74,0.09-2.6,0.24l-0.89-1.41l-2.47,0.72
							l0.01,1.66c-0.8,0.34-1.57,0.73-2.31,1.2l-1.36-0.96l-2,1.61l0.64,1.53c-0.6,0.61-1.17,1.27-1.67,1.99l-1.62-0.36l-1.23,2.25
							l1.18,1.16c-0.33,0.82-0.59,1.64-0.79,2.49l-1.64,0.27l-0.28,2.55l1.53,0.64c-0.01,0.87,0.08,1.74,0.23,2.58l-1.41,0.89
							l0.72,2.47l1.66,0c0.34,0.8,0.73,1.57,1.2,2.3l-0.96,1.36l1.6,2.01l1.54-0.65c0.61,0.61,1.27,1.17,1.99,1.67l-0.37,1.63
							l2.25,1.24l1.17-1.18c0.81,0.33,1.64,0.58,2.48,0.77l0.28,1.64l2.55,0.29l0.63-1.54c0.87,0,1.73-0.09,2.59-0.24l0.89,1.41
							l2.46-0.72l0-1.66c0.79-0.34,1.57-0.73,2.31-1.2l1.35,0.96l2.01-1.61l-0.65-1.53c0.61-0.61,1.17-1.27,1.68-1.99l1.61,0.36
							l1.24-2.25l-1.18-1.16c0.33-0.82,0.58-1.64,0.77-2.48L334.3,383.66z M321.43,382.67c-1.19,2.16-3.91,2.96-6.06,1.77
							c-2.16-1.19-2.94-3.9-1.76-6.06c1.18-2.16,3.89-2.94,6.05-1.76C321.82,377.8,322.61,380.51,321.43,382.67"/>
					</g>
				</g>
				<path class="st13" d="M348.47,340.44l-2.98-2.06c0,0,0-0.01,0-0.01c-0.3-1.08-0.7-2.13-1.2-3.11l0.76-3l-4.32-4.63l-3.04,0.56
					c-0.94-0.56-1.95-1.04-3.01-1.41c0,0-0.01,0-0.01,0l-1.85-3.12l-6.33-0.22l-2.06,2.98l-0.01,0c-1.08,0.3-2.12,0.7-3.1,1.2
					l-3-0.76l-4.63,4.32l0.56,3.04c0,0,0,0,0,0c-0.57,0.95-1.04,1.96-1.41,3.02l-3.11,1.85l-0.22,6.33l2.98,2.06
					c0.3,1.09,0.69,2.13,1.2,3.12c0,0,0,0,0,0l-0.76,2.99l4.32,4.63l3.02-0.55c0.96,0.56,1.97,1.04,3.04,1.41c0,0,0,0,0,0l1.85,3.11
					l6.33,0.22l2.06-2.98c1.1-0.29,2.14-0.7,3.13-1.2h0l2.98,0.76l4.63-4.32l-0.55-3.04c0.57-0.95,1.04-1.97,1.41-3.02h0l3.12-1.85
					L348.47,340.44z M328.74,350.07c-3.94-0.13-7.01-3.44-6.88-7.36c0.13-3.94,3.43-7.01,7.36-6.88s7.01,3.43,6.88,7.36
					C335.97,347.12,332.67,350.2,328.74,350.07"/>
				<path class="st10" d="M370.22,289.92l0.52-1.26c0,0,0,0,0,0c0.37-0.19,0.72-0.42,1.04-0.68l1.16,0.05l1.36-1.95l-0.45-1.07
					c0.13-0.39,0.23-0.8,0.28-1.22v0l1-0.93l-0.42-2.34l-1.26-0.52c0,0,0,0,0,0c-0.19-0.37-0.42-0.73-0.68-1.05l0.04-1.16
					l-1.95-1.36l-1.07,0.44c0,0,0,0,0,0c-0.39-0.14-0.8-0.23-1.22-0.28l-0.93-1l-2.34,0.42l-0.52,1.26
					c-0.38,0.19-0.73,0.42-1.05,0.68l-1.16-0.04l-1.36,1.95l0.44,1.07c-0.13,0.4-0.23,0.81-0.28,1.23v0l-1,0.92l0.42,2.34l1.26,0.52
					c0.19,0.38,0.42,0.73,0.69,1.05c0,0,0,0,0,0l-0.04,1.15l1.95,1.36l1.07-0.44c0.39,0.14,0.8,0.23,1.22,0.28l0.92,1L370.22,289.92
					z M365.13,283.43c-0.26-1.46,0.71-2.84,2.16-3.1c1.46-0.26,2.85,0.71,3.11,2.16c0.26,1.45-0.71,2.84-2.16,3.1
					C366.79,285.85,365.39,284.89,365.13,283.43"/>
				<path class="st10" d="M342.79,283.28l-0.76-0.64c1.33-1.57,3.21-3.56,6.01-5.03l0.46,0.89
					C345.51,280.06,343.6,282.32,342.79,283.28"/>
				<path class="st10" d="M350.77,277.6l-0.4-0.92c3.78-1.62,7.74-2.25,11.74-1.88l-0.09,1C358.18,275.43,354.4,276.04,350.77,277.6
					"/>
				<path class="st10" d="M348.88,284.51l-0.83-0.56c2.05-3.02,6.11-5.64,9.87-6.39l0.19,0.98
					C354.6,279.24,350.8,281.7,348.88,284.51"/>
				<path class="st13" d="M282.52,380.75c-0.13,0-0.26-0.05-0.36-0.15l-2.1-2.16c-1.07-0.1-2.12-0.3-3.15-0.58l-3.27,1.44
					c-0.15,0.07-0.33,0.05-0.48-0.04l-5.47-3.63c-0.14-0.1-0.23-0.25-0.22-0.42l0.05-3.56c-0.67-0.83-1.26-1.73-1.77-2.68l-2.8-1.09
					c-0.16-0.06-0.28-0.2-0.31-0.37l-1.3-6.44c-0.03-0.17,0.02-0.34,0.14-0.46l2.16-2.1c0.1-1.06,0.3-2.12,0.58-3.15l-1.44-3.26
					c-0.07-0.16-0.05-0.34,0.04-0.48l3.63-5.48c0.09-0.14,0.23-0.23,0.42-0.22l3.56,0.05c0.84-0.67,1.74-1.26,2.68-1.76l1.09-2.81
					c0.06-0.16,0.2-0.27,0.37-0.31l6.44-1.31c0.17-0.03,0.34,0.02,0.46,0.14l2.09,2.16c1.06,0.1,2.12,0.3,3.15,0.58l3.26-1.44
					c0.15-0.07,0.33-0.05,0.48,0.04l5.48,3.63c0.14,0.1,0.23,0.25,0.22,0.42l-0.06,3.57c0.67,0.83,1.26,1.73,1.77,2.67l2.81,1.09
					c0.16,0.06,0.27,0.2,0.31,0.37l1.3,6.44c0.03,0.17-0.02,0.34-0.14,0.46l-2.16,2.1c-0.1,1.05-0.3,2.11-0.58,3.14l1.44,3.27
					c0.07,0.16,0.05,0.34-0.04,0.48l-3.63,5.47c-0.09,0.14-0.24,0.21-0.42,0.22l-3.56-0.05c-0.83,0.66-1.73,1.25-2.67,1.76
					l-1.09,2.81c-0.06,0.16-0.2,0.28-0.37,0.31l-6.44,1.3C282.59,380.75,282.56,380.75,282.52,380.75 M276.89,376.82
					c0.05,0,0.1,0.01,0.14,0.02c1.07,0.31,2.18,0.52,3.31,0.62c0.12,0.01,0.23,0.06,0.32,0.15l2.04,2.1l5.9-1.2l1.06-2.73
					c0.04-0.11,0.13-0.21,0.23-0.26c1-0.52,1.95-1.14,2.82-1.85c0.09-0.07,0.19-0.12,0.32-0.11l3.47,0.05l3.33-5.02l-1.4-3.18
					c-0.05-0.11-0.05-0.23-0.02-0.34c0.32-1.09,0.52-2.21,0.62-3.31c0.01-0.12,0.06-0.23,0.15-0.32l2.1-2.04l-1.2-5.9l-2.73-1.06
					c-0.12-0.05-0.21-0.13-0.27-0.24c-0.52-1-1.14-1.94-1.85-2.8c-0.08-0.09-0.12-0.21-0.11-0.33l0.05-3.47l-5.02-3.33l-3.18,1.4
					c-0.11,0.05-0.23,0.05-0.34,0.02c-1.08-0.32-2.2-0.52-3.32-0.62c-0.12-0.01-0.23-0.06-0.32-0.15l-2.03-2.1l-5.9,1.2l-1.06,2.73
					c-0.04,0.11-0.13,0.21-0.24,0.26c-1,0.52-1.94,1.14-2.82,1.85c-0.09,0.07-0.21,0.13-0.33,0.12l-3.47-0.05l-3.33,5.02l1.4,3.18
					c0.06,0.14,0.06,0.29-0.01,0.43c-0.28,1-0.49,2.11-0.58,3.23c-0.01,0.12-0.06,0.23-0.15,0.32l-2.1,2.04l1.2,5.9l2.73,1.06
					c0.12,0.05,0.22,0.14,0.27,0.26c0.52,0.99,1.14,1.93,1.84,2.79c0.07,0.09,0.12,0.21,0.11,0.33l-0.05,3.47l5.02,3.33l3.18-1.4
					C276.75,376.84,276.82,376.82,276.89,376.82 M281.8,373.59c-2.53,0-5.08-0.72-7.34-2.21c-2.97-1.97-4.99-4.97-5.7-8.46
					c-0.71-3.49-0.02-7.04,1.95-10.01c4.07-6.12,12.35-7.81,18.47-3.75c6.12,4.06,7.8,12.35,3.74,18.47
					C290.37,371.49,286.13,373.59,281.8,373.59 M271.55,353.46c-1.82,2.74-2.46,6.03-1.8,9.26c0.65,3.22,2.53,6,5.27,7.82
					c5.67,3.75,13.33,2.2,17.08-3.46c3.75-5.66,2.2-13.33-3.46-17.09C282.97,346.24,275.31,347.79,271.55,353.46"/>
				<path class="st10" d="M473.01,402.44l-15.69-2.12l10.38-77.81l-30.28-4.09l-73.45,67.63l-3.86,28.93l63.29,8.54l-3.16,23.66
					l30.28,4.09l3.16-23.66l15.7,2.12L473.01,402.44z M393.59,391.73l38.76-35.33l-5.32,39.84L393.59,391.73z"/>
				<path class="st9" d="M441.31,450.54c-0.03,0-0.06,0-0.09-0.01c-0.27-0.05-0.45-0.31-0.4-0.58l23.33-127.93
					c0.05-0.27,0.31-0.44,0.58-0.4c0.27,0.05,0.45,0.31,0.4,0.58L441.8,450.13C441.76,450.37,441.55,450.54,441.31,450.54"/>
				<path class="st9" d="M462.01,324.16c-0.02,0.45-0.4,0.81-0.85,0.79c-0.45-0.02-0.81-0.39-0.79-0.85
					c0.01-0.45,0.39-0.81,0.85-0.79C461.67,323.33,462.03,323.71,462.01,324.16"/>
				<path class="st9" d="M458.68,341.47c-0.02,0.45-0.4,0.81-0.85,0.79c-0.45-0.02-0.81-0.39-0.79-0.85
					c0.01-0.45,0.39-0.81,0.85-0.79C458.34,340.63,458.69,341.01,458.68,341.47"/>
				<path class="st9" d="M455.35,358.77c-0.02,0.45-0.4,0.81-0.85,0.79c-0.45-0.02-0.81-0.39-0.79-0.85
					c0.01-0.45,0.39-0.81,0.85-0.79C455.01,357.93,455.36,358.31,455.35,358.77"/>
				<path class="st9" d="M448.79,376.78c-0.02,0.45-0.4,0.81-0.85,0.79c-0.45-0.02-0.81-0.39-0.79-0.85
					c0.01-0.45,0.39-0.81,0.85-0.79C448.45,375.95,448.81,376.32,448.79,376.78"/>
				<path class="st9" d="M448.68,393.37c-0.02,0.45-0.4,0.81-0.85,0.79s-0.81-0.39-0.79-0.85c0.02-0.45,0.39-0.81,0.85-0.79
					C448.34,392.54,448.7,392.92,448.68,393.37"/>
				<path class="st9" d="M445.35,410.67c-0.02,0.45-0.4,0.81-0.85,0.79s-0.81-0.39-0.79-0.85c0.01-0.45,0.39-0.81,0.85-0.79
					C445.01,409.84,445.36,410.22,445.35,410.67"/>
				<path class="st9" d="M442.02,427.97c-0.02,0.45-0.4,0.81-0.85,0.79s-0.81-0.39-0.79-0.85c0.02-0.45,0.39-0.81,0.85-0.79
					C441.68,427.14,442.03,427.52,442.02,427.97"/>
				<path class="st9" d="M438.68,445.27c-0.02,0.45-0.4,0.81-0.85,0.79c-0.45-0.02-0.81-0.39-0.79-0.85
					c0.02-0.45,0.39-0.8,0.85-0.79C438.34,444.44,438.7,444.82,438.68,445.27"/>
				<path class="st9" d="M447.97,377.25c-0.23,0-0.44-0.16-0.49-0.4c-0.06-0.27,0.11-0.54,0.38-0.59l2.48-0.53
					c0.27-0.05,0.54,0.11,0.59,0.38c0.06,0.27-0.11,0.53-0.38,0.59l-2.48,0.53C448.04,377.24,448.01,377.25,447.97,377.25"/>
				<path class="st9" d="M456.26,368.04c0,0-2.24,5.83-2.99,9.36c-0.75,3.53-0.8,11.42-0.8,11.42"/>
				<path class="st9" d="M452.47,389.32L452.47,389.32c-0.28,0-0.5-0.23-0.5-0.5c0-0.32,0.05-7.98,0.81-11.53
					c0.75-3.53,2.92-9.2,3.01-9.44c0.1-0.26,0.39-0.38,0.65-0.29c0.26,0.1,0.39,0.39,0.29,0.65c-0.02,0.06-2.23,5.83-2.97,9.29
					c-0.73,3.44-0.79,11.24-0.79,11.32C452.97,389.1,452.75,389.32,452.47,389.32"/>
			</g>
			<g class="st2">
				<defs>
					<rect id="SVGID_19_" x="47.18" y="170.79" width="500" height="500"/>
				</defs>
				<clipPath id="SVGID_20_">
					<use xlink:href="#SVGID_19_"  style="overflow:visible;"/>
				</clipPath>
				<path class="st14" d="M269.63,475.64c1.39-22.4-1.17-63.13,40.94-57.74c45.14,5.78,32.22,58.56,32.22,58.56L269.63,475.64z"/>
				<path class="st15" d="M317.07,443.79c0,10.15-8.23,18.38-18.38,18.38c-10.15,0-18.38-8.23-18.38-18.38
					c0-10.15,8.23-18.38,18.38-18.38C308.84,425.42,317.07,433.65,317.07,443.79"/>
				<path class="st14" d="M301.11,425.45c-8.7-1.49-18.01,4.93-18.93,11.43l34.51,3.17C315.47,432.64,308.01,426.63,301.11,425.45"
					/>
				<path class="st14" d="M312.76,443.34c-0.25,4.8-2.87,8.57-5.85,8.42c-2.98-0.15-5.2-4.17-4.95-8.98
					c0.25-4.8,2.86-8.57,5.85-8.42C310.78,434.51,313,438.53,312.76,443.34"/>
				<path class="st16" d="M298.69,463.17c-10.68,0-19.38-8.69-19.38-19.38c0-10.68,8.69-19.38,19.38-19.38s19.38,8.69,19.38,19.38
					C318.07,454.48,309.38,463.17,298.69,463.17 M298.69,426.42c-9.58,0-17.38,7.79-17.38,17.38c0,9.58,7.79,17.38,17.38,17.38
					s17.38-7.79,17.38-17.38C316.07,434.21,308.27,426.42,298.69,426.42"/>
				<g class="st17">
					<g>
						<defs>
							<rect id="SVGID_21_" x="337.07" y="446.44" width="2.51" height="28.64"/>
						</defs>
						<clipPath id="SVGID_22_">
							<use xlink:href="#SVGID_21_"  style="overflow:visible;"/>
						</clipPath>
						<path class="st18" d="M337.66,475.07c-0.04,0-0.08-0.01-0.12-0.01c-0.27-0.06-0.43-0.33-0.37-0.6
							c0.03-0.14,3.22-13.7-0.09-27.4c-0.07-0.27,0.1-0.54,0.37-0.6c0.26-0.06,0.54,0.1,0.6,0.37c3.37,13.95,0.12,27.73,0.09,27.87
							C338.09,474.92,337.89,475.07,337.66,475.07"/>
					</g>
				</g>
				<g class="st17">
					<g>
						<defs>
							<rect id="SVGID_23_" x="329.57" y="430.79" width="5.81" height="8.77"/>
						</defs>
						<clipPath id="SVGID_24_">
							<use xlink:href="#SVGID_23_"  style="overflow:visible;"/>
						</clipPath>
						<path class="st19" d="M334.88,439.55c-0.19,0-0.37-0.11-0.46-0.29c-1.29-2.81-2.88-5.38-4.74-7.66
							c-0.17-0.21-0.14-0.53,0.07-0.7c0.21-0.18,0.53-0.14,0.7,0.07c1.91,2.34,3.56,4.99,4.88,7.87c0.11,0.25,0.01,0.55-0.25,0.66
							C335.02,439.54,334.95,439.55,334.88,439.55"/>
					</g>
				</g>
				<path class="st14" d="M175.91,580.71c-0.12,0-0.25,0-0.37-0.01c-2.76-0.08-4.94-2.38-4.86-5.14c0.07-2.76,2.35-4.89,5.13-4.86
					c0.03,0,0.06,0,0.1,0c2.89,0,9.84-3.51,24.38-26.43c0.78-1.23,2.06-2.06,3.5-2.27c1.45-0.2,2.9,0.22,4.01,1.18
					c17.94,15.64,36.95,25.38,37.14,25.48c2.46,1.25,3.44,4.26,2.19,6.72c-1.25,2.46-4.26,3.45-6.72,2.2
					c-0.75-0.38-17.37-8.88-34.8-23.15C193.43,572.76,184.39,580.71,175.91,580.71"/>
				<path class="st14" d="M206.85,542.29c-0.14,0-0.28-0.01-0.43-0.03c-1.64-0.24-2.78-1.75-2.55-3.4
					c0.71-4.98-0.17-23.63-6.47-38.13c-0.57-1.32-0.13-2.86,1.06-3.68c13.7-9.33,42.88-10.45,44.11-10.49
					c1.65-0.04,3.04,1.24,3.1,2.89c0.06,1.65-1.24,3.05-2.89,3.1c-0.27,0.01-25.78,0.99-38.89,8.2c5.58,14.44,6.85,32.44,5.92,38.95
					C209.6,541.22,208.32,542.29,206.85,542.29"/>
				<path class="st16" d="M211.89,538.41c-2-4.71-10.99-4.17-16.27-0.14c-2.82,2.16-6.64,8.64-7.04,10.99
					c-0.4,2.35,1.23,4.48,4.02,4.24c3.45-0.3,8.18-5.31,8.18-5.31c-3.15,3.09,0.91,5.27,6.98,0.8
					C211.12,546.52,214.12,543.68,211.89,538.41"/>
				<path class="st14" d="M383.89,476.96c-0.04,0-0.09-0.01-0.14-0.02c-0.26-0.08-0.42-0.35-0.34-0.62c1.33-4.64,2.79-7.48,4.7-9.05
					c-0.29-1-0.26-2.14,0.15-3.26c0.4-1.09,1.18-2.17,2.36-3.01c-0.58-0.63-0.79-1.45-0.59-2.38c0.23-1.04,0.98-2.17,2.14-3.16
					c-0.45-0.52-0.56-1.09-0.57-1.51c-0.02-2.98,5.51-7.53,11.76-8.38c0.27-0.05,0.53,0.15,0.56,0.43c0.04,0.27-0.15,0.53-0.43,0.56
					c-5.94,0.81-10.92,5.11-10.9,7.38c0,0.37,0.14,0.66,0.36,0.9c2.25-1.57,5.57-2.58,9.28-1.86c3.07,0.59,4.32,1.24,4.17,2.17
					c-0.27,1.75-6.81,2.12-11.19,1.59c-0.99-0.12-1.72-0.35-2.25-0.64c-1.09,0.89-1.79,1.89-1.97,2.73
					c-0.16,0.75,0.08,1.27,0.49,1.64c1.86-0.96,4.47-1.36,7.92-0.6c4.54,1,4.71,1.55,4.81,1.88c0.07,0.24,0.01,0.48-0.16,0.66
					c-0.96,1.01-7.91,0.53-11.4-0.32c-0.45-0.11-0.86-0.26-1.2-0.45c-1.16,0.73-1.9,1.71-2.27,2.71c-0.29,0.8-0.36,1.59-0.23,2.3
					c0.18-0.11,0.36-0.2,0.55-0.29c2.07-0.98,4.57-0.82,7.65,0.5c2.04,0.88,3.03,1.65,3.1,2.44c0.02,0.23-0.02,0.68-0.57,1.04
					c-1.52,1.01-6.87,0.86-9.65-0.62c-0.65-0.35-1.18-0.87-1.54-1.49c-1.64,1.49-2.95,4.17-4.16,8.36
					C384.3,476.81,384.1,476.96,383.89,476.96 M389.31,467.62c0.28,0.51,0.69,0.93,1.22,1.22c2.26,1.2,6.7,1.48,8.36,0.8
					c0.34-0.14,0.39-0.25,0.39-0.25c0,0-0.05-0.56-2.5-1.61c-2.8-1.2-5.04-1.37-6.83-0.52
					C389.73,467.37,389.52,467.49,389.31,467.62 M392.65,461.06c0.09,0.02,0.17,0.05,0.26,0.07c3.53,0.87,8.3,1.01,9.93,0.74
					c-0.51-0.21-1.54-0.56-3.64-1.02C396.43,460.24,394.26,460.43,392.65,461.06 M393.91,455.43c0.45,0.17,0.96,0.27,1.44,0.32
					c4.98,0.59,9.38-0.11,10.04-0.73c-0.17-0.15-0.84-0.58-3.33-1.06C398.77,453.35,395.9,454.17,393.91,455.43"/>
				<path class="st14" d="M253.71,579.04c0.66-0.21,0.44-0.85-0.3-0.85h-13.54c-25.78-2.73-43.79,0.93-32.44,1.79
					c11.35,0.86-0.8,0.68-9.09,3.82c-8.29,3.14,61.65,3.93,68.01,0C272.22,580.18,244.57,581.97,253.71,579.04"/>
				<polygon class="st16" points="350.65,583.03 232.85,579.13 227.96,464.91 367.07,468.02 				"/>
				<path class="st14" d="M269.63,580.85c-0.26,0-0.48-0.2-0.5-0.46l-9.44-114.72c-0.02-0.27,0.18-0.52,0.46-0.54
					c0.28-0.02,0.52,0.18,0.54,0.46l9.44,114.72c0.02,0.27-0.18,0.52-0.46,0.54C269.66,580.85,269.65,580.85,269.63,580.85"/>
				<polygon class="st16" points="350.65,583.03 382.31,578.21 392.28,472 367.07,468.02 				"/>
				<g class="st20">
					<g>
						<defs>
							<rect id="SVGID_25_" x="350.65" y="468.02" width="41.64" height="115.02"/>
						</defs>
						<clipPath id="SVGID_26_">
							<use xlink:href="#SVGID_25_"  style="overflow:visible;"/>
						</clipPath>
						<polygon class="st21" points="350.65,583.03 382.31,578.21 392.28,472 367.07,468.02 						"/>
					</g>
				</g>
				<path class="st14" d="M242.91,557.11l-2.91-67.86c-0.3-7.08,5.44-12.95,12.53-12.79l88.06,1.97c7.35,0.17,12.91,6.72,11.87,14
					l-9.76,68.39c-0.89,6.2-6.3,10.73-12.55,10.53l-75.39-2.5C248.35,568.64,243.19,563.52,242.91,557.11"/>
				<polygon class="st15" points="252.43,497.28 266.05,497.72 265.94,501.23 257.41,500.96 257.33,503.57 265.24,503.82 
					265.13,507.18 257.22,506.93 257.12,510.17 265.89,510.45 265.77,514.18 251.9,513.74 				"/>
				<path class="st15" d="M268.58,514.27l0.52-16.45l8.47,0.27c1.57,0.05,2.77,0.22,3.59,0.52c0.82,0.3,1.48,0.82,1.96,1.56
					c0.49,0.75,0.71,1.64,0.68,2.69c-0.03,0.91-0.25,1.69-0.66,2.34c-0.41,0.65-0.96,1.17-1.66,1.56c-0.44,0.25-1.05,0.45-1.81,0.6
					c0.6,0.22,1.03,0.44,1.3,0.65c0.18,0.14,0.44,0.44,0.79,0.89c0.34,0.45,0.57,0.8,0.68,1.05l2.31,4.85l-5.74-0.18l-2.56-5.11
					c-0.32-0.66-0.62-1.09-0.88-1.3c-0.36-0.27-0.77-0.41-1.23-0.42l-0.45-0.01l-0.21,6.68L268.58,514.27z M274,504.64l2.14,0.07
					c0.23,0.01,0.68-0.05,1.35-0.18c0.34-0.06,0.62-0.22,0.84-0.49c0.22-0.27,0.34-0.58,0.35-0.94c0.02-0.53-0.14-0.94-0.47-1.24
					c-0.33-0.29-0.96-0.46-1.88-0.49l-2.23-0.07L274,504.64z"/>
				<path class="st15" d="M286.46,514.83l0.52-16.45l8.47,0.27c1.57,0.05,2.77,0.22,3.59,0.52c0.82,0.3,1.48,0.82,1.96,1.56
					c0.49,0.75,0.71,1.64,0.68,2.69c-0.03,0.91-0.25,1.69-0.66,2.34c-0.41,0.65-0.96,1.17-1.66,1.56c-0.44,0.25-1.04,0.45-1.81,0.59
					c0.6,0.22,1.03,0.44,1.3,0.65c0.18,0.14,0.44,0.44,0.79,0.89c0.34,0.45,0.57,0.8,0.68,1.05l2.31,4.85l-5.74-0.18l-2.56-5.11
					c-0.32-0.66-0.62-1.09-0.88-1.3c-0.36-0.27-0.77-0.41-1.23-0.42l-0.45-0.01l-0.21,6.68L286.46,514.83z M291.87,505.21l2.14,0.07
					c0.23,0.01,0.68-0.05,1.35-0.18c0.34-0.06,0.62-0.22,0.84-0.49c0.22-0.27,0.34-0.58,0.35-0.94c0.02-0.53-0.14-0.94-0.47-1.24
					c-0.33-0.29-0.96-0.46-1.88-0.49l-2.23-0.07L291.87,505.21z"/>
				<path class="st15" d="M303.5,507.15c0.09-2.69,0.9-4.75,2.44-6.2c1.54-1.45,3.65-2.13,6.32-2.05c2.74,0.09,4.82,0.89,6.26,2.41
					c1.43,1.52,2.11,3.6,2.02,6.25c-0.06,1.92-0.43,3.49-1.12,4.7c-0.69,1.21-1.65,2.14-2.9,2.78s-2.78,0.94-4.61,0.88
					c-1.86-0.06-3.38-0.4-4.58-1.03c-1.2-0.63-2.15-1.6-2.87-2.9C303.76,510.69,303.43,509.08,303.5,507.15 M308.58,507.34
					c-0.05,1.66,0.22,2.86,0.81,3.61s1.42,1.13,2.49,1.17c1.09,0.04,1.95-0.29,2.57-0.98c0.62-0.69,0.96-1.96,1.02-3.8
					c0.05-1.55-0.23-2.69-0.83-3.42c-0.6-0.73-1.44-1.12-2.51-1.15c-1.03-0.03-1.86,0.3-2.5,1.01
					C308.98,504.47,308.63,505.66,308.58,507.34"/>
				<path class="st15" d="M323.09,516l0.52-16.45l8.47,0.27c1.57,0.05,2.77,0.22,3.59,0.52c0.82,0.29,1.48,0.82,1.96,1.56
					c0.49,0.75,0.71,1.64,0.68,2.69c-0.03,0.91-0.25,1.69-0.66,2.34c-0.41,0.65-0.96,1.17-1.66,1.56c-0.44,0.25-1.04,0.45-1.81,0.59
					c0.6,0.22,1.03,0.44,1.3,0.65c0.18,0.14,0.44,0.44,0.79,0.89s0.57,0.8,0.68,1.05l2.31,4.85l-5.74-0.18l-2.56-5.11
					c-0.32-0.66-0.62-1.09-0.88-1.3c-0.36-0.27-0.77-0.41-1.23-0.42l-0.45-0.02l-0.21,6.68L323.09,516z M328.5,506.38l2.14,0.07
					c0.23,0.01,0.68-0.05,1.35-0.18c0.34-0.06,0.62-0.22,0.84-0.49c0.22-0.27,0.34-0.58,0.35-0.94c0.02-0.53-0.14-0.94-0.47-1.24
					c-0.33-0.3-0.95-0.46-1.88-0.49l-2.23-0.07L328.5,506.38z"/>
				<path class="st15" d="M331.18,543.95c-0.36,0-0.71-0.14-0.97-0.43l-8.56-9.37l-9.24,8.44c-0.53,0.49-1.36,0.45-1.85-0.08
					l-8.56-9.37l-9.24,8.44c-0.54,0.49-1.37,0.45-1.85-0.08l-8.56-9.37l-9.24,8.44c-0.26,0.23-0.6,0.36-0.94,0.34
					c-0.35-0.02-0.68-0.17-0.91-0.43l-8.56-9.37l-9.24,8.44c-0.53,0.49-1.36,0.45-1.85-0.08c-0.49-0.53-0.45-1.37,0.08-1.85
					l10.2-9.33c0.54-0.49,1.37-0.45,1.86,0.08l8.56,9.37l9.24-8.44c0.26-0.24,0.6-0.36,0.94-0.34c0.35,0.02,0.68,0.17,0.91,0.42
					l8.56,9.37l9.24-8.44c0.53-0.49,1.37-0.45,1.86,0.08l8.56,9.37l9.24-8.44c0.53-0.49,1.36-0.45,1.85,0.08l9.45,10.34
					c0.49,0.54,0.45,1.37-0.08,1.85C331.81,543.84,331.49,543.95,331.18,543.95"/>
				<polygon class="st16" points="172.93,585.46 166.67,582.48 161.09,555.31 164.12,551.97 				"/>
				<polygon class="st16" points="172.93,585.46 181.23,580.61 174.11,558.23 164.12,551.97 				"/>
				<g class="st20">
					<g>
						<defs>
							<rect id="SVGID_27_" x="164.12" y="551.97" width="17.12" height="33.49"/>
						</defs>
						<clipPath id="SVGID_28_">
							<use xlink:href="#SVGID_27_"  style="overflow:visible;"/>
						</clipPath>
						<polygon class="st22" points="172.93,585.46 181.23,580.61 174.11,558.23 164.12,551.97 						"/>
					</g>
				</g>
				<path class="st14" d="M309.13,590.4c-0.24,0-0.47,0-0.69-0.01c-2.76-0.08-4.94-2.38-4.86-5.14c0.07-2.76,2.36-4.93,5.13-4.86
					c7.7,0.25,24.01-4.48,33.32-13.52c0.58-0.56,1.28-0.97,2.05-1.2c15.79-4.74,21.66,4.83,21.91,5.24l-8.61,5.09
					c0,0,0.03,0.07,0.12,0.18c-0.1-0.13-2.33-3.04-9.45-1.24C336.35,585.62,318.41,590.4,309.13,590.4"/>
				<polygon class="st16" points="308.57,597.05 290.36,595.9 288.92,562.32 313.4,563.24 				"/>
				<polygon class="st16" points="308.57,597.05 312.83,592.81 315.47,571.87 313.4,563.24 				"/>
				<g class="st20">
					<g>
						<defs>
							<rect id="SVGID_29_" x="308.57" y="563.24" width="6.9" height="33.81"/>
						</defs>
						<clipPath id="SVGID_30_">
							<use xlink:href="#SVGID_29_"  style="overflow:visible;"/>
						</clipPath>
						<polygon class="st23" points="308.57,597.05 312.83,592.81 315.47,571.87 313.4,563.24 						"/>
					</g>
				</g>
				<path class="st14" d="M414.09,584.33c-0.63,0-1.27-0.2-1.81-0.61c-10.39-7.9-24.45-21.93-29.84-35.46
					c-0.08-0.2-0.14-0.4-0.17-0.61c-2.63-15.63-5.14-48.54-5.25-49.93c-0.12-1.65,1.11-3.09,2.76-3.22
					c1.65-0.12,3.09,1.11,3.22,2.76c0.02,0.34,2.56,33.57,5.13,49.07c5.38,13.16,19.96,26.67,27.78,32.61c1.32,1,1.58,2.89,0.57,4.2
					C415.89,583.92,415,584.33,414.09,584.33"/>
				<path class="st14" d="M427.96,585.85c-2.32,0-4.95-1.05-7.81-3.12c-1.34-0.97-1.64-2.85-0.67-4.19
					c0.97-1.34,2.85-1.64,4.19-0.67c2.48,1.79,3.83,1.99,4.3,1.99c1.66,0,3,1.34,3,3C430.96,584.5,429.61,585.85,427.96,585.85"/>
				<path class="st16" d="M420.98,582.64c3.21-9.54,16.37-7.65,20.9-6.24c4.53,1.42,8.62,3.2,11.07,4.8
					c2.46,1.61,2.49,4.29-0.78,5.82c-4.04,1.89-14.16,0.21-14.16,0.21c5.24,2.3-0.01,5.97-9.2,2.36
					C425.82,588.42,419.85,586.13,420.98,582.64"/>
				<path class="st14" d="M389.04,501.83c-1.19,8.1-7.9,14.08-13.36,13.27c-5.46-0.8-5.68-8.04-4.49-16.14
					c1.19-8.1,3.35-14,8.81-13.2C385.45,486.57,390.23,493.73,389.04,501.83"/>
				<path class="st14" d="M257.87,468.67c0,0.45-0.37,0.82-0.82,0.82c-0.45,0-0.82-0.37-0.82-0.82c0-0.45,0.37-0.82,0.82-0.82
					C257.51,467.85,257.87,468.22,257.87,468.67"/>
				<path class="st14" d="M265.39,474.57c0,0.45-0.37,0.82-0.82,0.82c-0.45,0-0.82-0.37-0.82-0.82c0-0.45,0.37-0.82,0.82-0.82
					C265.02,473.75,265.39,474.12,265.39,474.57"/>
				<path class="st14" d="M266.3,571.48c0,0.45-0.37,0.82-0.82,0.82c-0.45,0-0.82-0.37-0.82-0.82c0-0.45,0.37-0.82,0.82-0.82
					C265.94,570.66,266.3,571.03,266.3,571.48"/>
				<path class="st14" d="M273.82,577.38c0,0.45-0.37,0.82-0.82,0.82c-0.45,0-0.82-0.37-0.82-0.82c0-0.45,0.37-0.82,0.82-0.82
					C273.45,576.56,273.82,576.93,273.82,577.38"/>
			</g>
			<g class="st2">
				<defs>
					<rect id="SVGID_31_" x="47.18" y="170.79" width="500" height="500"/>
				</defs>
				<clipPath id="SVGID_32_">
					<use xlink:href="#SVGID_31_"  style="overflow:visible;"/>
				</clipPath>
				<path class="st24" d="M129.69,587.21c-2.38,0-5.6-1.44-7.33-3.95c-0.16-0.23-0.1-0.54,0.13-0.7c0.23-0.16,0.54-0.1,0.7,0.13
					c1.87,2.69,5.98,4.13,7.8,3.28c0.19-0.09,0.35-0.2,0.47-0.34c-1.63-0.75-3.12-2.23-3.53-4.48c-0.23-1.27-0.41-2.98,0.64-3.22
					c1.43-0.32,3.31,3.15,4.03,5.78c0.13,0.49,0.18,0.94,0.13,1.34c0.63,0.17,1.25,0.22,1.79,0.14c0.43-0.06,1.05-0.24,1.38-0.75
					c-1.21-0.82-2.03-2.27-2.3-4.19c-0.39-2.73-0.1-3.21,0.21-3.44c0.2-0.15,0.45-0.18,0.69-0.08c1.07,0.46,2.37,4.33,2.61,6.53
					c0.03,0.24,0.03,0.47,0,0.69c0.41,0.16,0.86,0.25,1.35,0.26c0.87,0.05,1.72-0.23,2.41-0.63c-0.14-0.09-0.28-0.19-0.4-0.29
					c-1.04-0.89-1.46-2.3-1.28-4.33c0.14-1.57,0.49-2.42,1.12-2.69c0.22-0.1,0.67-0.19,1.21,0.24c1.08,0.86,2.09,3.6,1.73,5.56
					c-0.08,0.4-0.25,0.79-0.5,1.15c1.84,0.32,4.42-0.2,6.64-0.75c0.27-0.07,0.54,0.1,0.61,0.37c0.07,0.27-0.1,0.54-0.37,0.61
					c-2.71,0.67-5.63,1.21-7.69,0.62c-0.92,0.73-2.21,1.17-3.5,1.16c-0.59-0.01-1.14-0.12-1.64-0.31c-0.39,0.67-1.13,1.12-2.12,1.27
					c-0.66,0.1-1.45,0.03-2.24-0.19c-0.23,0.38-0.57,0.68-1.01,0.89C130.93,587.11,130.34,587.21,129.69,587.21 M128.83,578.94
					c-0.06,0.15-0.16,0.66,0.08,2.04c0.33,1.84,1.52,3.06,2.84,3.71c-0.01-0.21-0.05-0.45-0.12-0.71
					C130.85,581.12,129.35,579.15,128.83,578.94 M134.4,578.06c-0.01,0.38,0.03,1.01,0.18,2.06c0.2,1.43,0.73,2.52,1.52,3.22
					C135.86,581.34,134.97,579.01,134.4,578.06 M140.69,577.2L140.69,577.2c0,0-0.38,0.19-0.52,1.86c-0.15,1.68,0.16,2.82,0.93,3.48
					c0.18,0.15,0.38,0.28,0.6,0.38c0.28-0.31,0.48-0.66,0.54-1.03c0.27-1.45-0.42-3.57-1.2-4.43
					C140.84,577.24,140.72,577.2,140.69,577.2"/>
				<polygon class="st24" points="276.05,594.77 278.76,590.07 276.05,585.37 273.15,585.37 274.79,590.07 273.15,594.77 				"/>
				<path class="st24" d="M273.34,592.52c-1.35,0-2.45-1.1-2.45-2.45c0-1.35,1.1-2.44,2.45-2.44l-4.61-0.92l-1.22,3.72l2.06,3.14
					L273.34,592.52z"/>
				<path class="st25" d="M273.74,585.37h-5.43l-2.71,4.7l2.71,4.7h5.43l2.71-4.7L273.74,585.37z M271.03,592.52
					c-1.35,0-2.45-1.1-2.45-2.45c0-1.35,1.1-2.44,2.45-2.44c1.35,0,2.44,1.09,2.44,2.44C273.47,591.42,272.38,592.52,271.03,592.52"
					/>
				<polygon class="st25" points="465.07,585.06 463.06,581.57 465.07,578.08 467.22,578.08 466.01,581.57 467.22,585.06 				"/>
				<path class="st25" d="M467.08,583.39c1,0,1.82-0.82,1.82-1.82c0-1-0.82-1.81-1.82-1.81l3.42-0.68l0.91,2.76l-1.53,2.33
					L467.08,583.39z"/>
				<path class="st24" d="M466.79,578.08h4.03l2.01,3.49l-2.01,3.49h-4.03l-2.01-3.49L466.79,578.08z M468.8,583.39
					c1,0,1.82-0.82,1.82-1.82c0-1-0.82-1.81-1.82-1.81c-1,0-1.81,0.81-1.81,1.81C466.99,582.57,467.8,583.39,468.8,583.39"/>
				<path class="st24" d="M390.13,589.69h4.52c1.18,0,2.14-0.96,2.14-2.14c0-1.17-0.96-2.14-2.14-2.14h-4.52
					c-1.18,0-2.14,0.96-2.14,2.14C387.99,588.73,388.95,589.69,390.13,589.69"/>
				<path class="st25" d="M382.91,585.66c1.12-2.37,3.82-3.44,6.04-2.39c2.22,1.05,3.12,3.82,2,6.18c-1.12,2.37-3.82,3.44-6.04,2.39
					C382.69,590.79,381.79,588.02,382.91,585.66"/>
				
					<rect x="381.88" y="586.87" transform="matrix(0.427 -0.9043 0.9043 0.427 -309.5814 686.5778)" class="st24" width="10.1" height="1.37"/>
			</g>
		</g>
	</g>
</g>
</svg>
