<?xml version="1.0" encoding="utf-8"?>
<!-- Generator: Adobe Illustrator 24.3.0, SVG Export Plug-In . SVG Version: 6.00 Build 0)  -->
<svg version="1.1" id="Layer_1" xmlns="http://www.w3.org/2000/svg" xmlns:xlink="http://www.w3.org/1999/xlink" x="0px" y="0px"
	 viewBox="0 0 200 200" style="enable-background:new 0 0 200 200;" xml:space="preserve">
<style type="text/css">
	.st0{fill:#617D8C;}
	.st1{fill:#273339;}
	.st2{fill:#FFFFFF;}
</style>
<g>
	<g>
		<g>
			<path class="st0" d="M100.57,159.2c-4.59,0-8.91-1.79-12.16-5.04L46.1,111.86c-6.7-6.7-6.7-17.61,0-24.32l42.31-42.31
				c3.25-3.25,7.57-5.04,12.16-5.04c4.59,0,8.91,1.79,12.16,5.04l42.31,42.31c3.25,3.25,5.04,7.57,5.04,12.16s-1.79,8.91-5.04,12.16
				l-42.31,42.31C109.48,157.42,105.16,159.2,100.57,159.2z M100.57,42.2c-4.06,0-7.87,1.58-10.74,4.45L47.52,88.96
				c-5.92,5.92-5.92,15.56,0,21.49l42.31,42.31c2.87,2.87,6.69,4.45,10.74,4.45c4.06,0,7.87-1.58,10.74-4.45l42.31-42.31
				c2.87-2.87,4.45-6.69,4.45-10.74s-1.58-7.87-4.45-10.74l-42.31-42.31C108.44,43.79,104.63,42.2,100.57,42.2z M100.57,155.58
				c-3.62,0-7.03-1.41-9.59-3.97L48.67,109.3c-5.29-5.29-5.29-13.9,0-19.18l42.31-42.31c2.56-2.56,5.97-3.97,9.59-3.97
				s7.03,1.41,9.59,3.97l42.31,42.31c2.56,2.56,3.97,5.97,3.97,9.59c0,3.62-1.41,7.03-3.97,9.59l-42.31,42.31
				C107.6,154.17,104.19,155.58,100.57,155.58z M100.57,45.83c-3.09,0-5.99,1.2-8.18,3.39L50.08,91.53
				c-4.51,4.51-4.51,11.85,0,16.36l42.31,42.31c2.18,2.18,5.09,3.39,8.18,3.39c3.09,0,5.99-1.2,8.18-3.39l42.31-42.31
				c2.18-2.18,3.39-5.09,3.39-8.18c0-3.09-1.2-5.99-3.39-8.18l-42.31-42.31C106.56,47.04,103.66,45.83,100.57,45.83z"/>
		</g>
		<g>
			<path class="st1" d="M153.75,137.8H47.39c-0.5,0-0.8-0.55-0.53-0.97l4.32-6.62c0.14-0.21,0.14-0.48,0-0.69l-4.32-6.62
				c-0.27-0.42,0.03-0.97,0.53-0.97h106.36c0.5,0,0.8,0.55,0.53,0.97l-4.32,6.62c-0.14,0.21-0.14,0.48,0,0.69l4.32,6.62
				C154.55,137.25,154.25,137.8,153.75,137.8z"/>
		</g>
		<g>
			<path class="st2" d="M69.01,125.22c0.2-0.03,0.51-0.06,0.93-0.11c0.42-0.05,0.94-0.07,1.57-0.07c0.46,0,0.93,0.04,1.41,0.13
				c0.47,0.09,0.9,0.25,1.28,0.49c0.38,0.24,0.69,0.58,0.93,1.02c0.24,0.44,0.36,1.01,0.36,1.71c0,0.62-0.09,1.14-0.28,1.55
				c-0.19,0.41-0.44,0.74-0.75,0.99c-0.31,0.25-0.67,0.42-1.06,0.53c-0.4,0.11-0.81,0.16-1.23,0.16c-0.17,0-0.33-0.01-0.51-0.02
				c-0.17-0.01-0.29-0.03-0.36-0.05v3.06c-0.23,0.04-0.43,0.07-0.62,0.09c-0.18,0.02-0.35,0.03-0.51,0.03
				c-0.31,0-0.69-0.04-1.14-0.12V125.22z M71.28,129.67c0.04,0.02,0.12,0.03,0.22,0.04c0.1,0.01,0.21,0.01,0.33,0.01
				c0.38,0,0.68-0.11,0.92-0.33c0.24-0.22,0.35-0.55,0.35-1c0-0.26-0.04-0.48-0.11-0.66c-0.07-0.18-0.18-0.32-0.31-0.43
				c-0.13-0.11-0.28-0.19-0.46-0.23c-0.18-0.04-0.36-0.07-0.55-0.07c-0.05,0-0.11,0-0.18,0c-0.07,0-0.14,0-0.21,0.01V129.67z"/>
			<path class="st2" d="M77.4,125.22c0.43-0.04,0.83-0.08,1.19-0.12c0.36-0.04,0.75-0.06,1.15-0.06c0.48,0,0.96,0.05,1.45,0.14
				c0.48,0.09,0.91,0.25,1.29,0.48c0.38,0.23,0.68,0.54,0.92,0.93c0.24,0.39,0.35,0.89,0.35,1.5c0,0.32-0.04,0.62-0.11,0.87
				c-0.07,0.26-0.17,0.49-0.29,0.69c-0.12,0.2-0.25,0.38-0.39,0.53c-0.14,0.15-0.29,0.28-0.43,0.38l2.05,4.05
				c-0.21,0.04-0.44,0.06-0.69,0.08c-0.25,0.02-0.48,0.03-0.68,0.03c-0.18,0-0.38-0.01-0.61-0.03c-0.23-0.02-0.44-0.04-0.61-0.08
				l-1.87-4.3l0.12-0.07c0.11-0.05,0.22-0.14,0.35-0.26c0.13-0.12,0.25-0.27,0.35-0.44c0.11-0.17,0.2-0.36,0.28-0.57
				c0.07-0.21,0.11-0.43,0.11-0.66c0-0.44-0.12-0.76-0.37-0.96c-0.25-0.2-0.55-0.3-0.91-0.3c-0.09,0-0.16,0-0.22,0.01
				c-0.06,0.01-0.1,0.02-0.12,0.03v7.52c-0.46,0.08-0.85,0.12-1.14,0.12c-0.32,0-0.71-0.04-1.17-0.12V125.22z"/>
			<path class="st2" d="M91.19,129.72c0,0.31-0.04,0.65-0.12,1.03h-2.54v1.87h3.3c0.08,0.37,0.12,0.7,0.12,1
				c0,0.32-0.04,0.67-0.12,1.04h-5.62v-9.45h5.54c0.04,0.19,0.06,0.37,0.08,0.54c0.02,0.17,0.03,0.32,0.03,0.47
				c0,0.29-0.04,0.63-0.11,1.04h-3.22v1.45h2.54C91.15,129.08,91.19,129.42,91.19,129.72z"/>
			<path class="st2" d="M94.12,125.22c0.18-0.03,0.38-0.05,0.6-0.07c0.21-0.02,0.41-0.03,0.6-0.03c0.17,0,0.37,0.01,0.57,0.03
				c0.21,0.02,0.4,0.05,0.57,0.07l1.87,4.89l1.93-4.89c0.18-0.03,0.35-0.05,0.53-0.07c0.18-0.02,0.36-0.03,0.53-0.03
				c0.18,0,0.37,0.01,0.57,0.03c0.19,0.02,0.38,0.05,0.56,0.07l0.45,9.38c-0.14,0.03-0.3,0.05-0.47,0.08
				c-0.17,0.03-0.4,0.04-0.68,0.04c-0.31,0-0.67-0.04-1.09-0.12l-0.18-5.44l-1.45,3.59c-0.16,0.03-0.32,0.05-0.47,0.07
				c-0.16,0.02-0.3,0.03-0.43,0.03c-0.13,0-0.27-0.01-0.41-0.02c-0.14-0.01-0.28-0.04-0.43-0.07L96,129.22l-0.14,5.39
				c-0.37,0.08-0.72,0.12-1.05,0.12c-0.31,0-0.66-0.04-1.06-0.12L94.12,125.22z"/>
			<path class="st2" d="M106.25,134.73c-0.32,0-0.71-0.04-1.17-0.12v-9.38c0.24-0.03,0.45-0.06,0.64-0.08
				c0.19-0.02,0.36-0.03,0.51-0.03c0.16,0,0.33,0.01,0.53,0.03c0.2,0.02,0.41,0.04,0.64,0.08v9.38
				C106.94,134.69,106.55,134.73,106.25,134.73z"/>
			<path class="st2" d="M114.67,129.72c0,0.31-0.04,0.65-0.12,1.03h-2.54v1.87h3.3c0.08,0.37,0.12,0.7,0.12,1
				c0,0.32-0.04,0.67-0.12,1.04h-5.62v-9.45h5.54c0.04,0.19,0.06,0.37,0.08,0.54c0.02,0.17,0.03,0.32,0.03,0.47
				c0,0.29-0.04,0.63-0.11,1.04h-3.22v1.45h2.54C114.63,129.08,114.67,129.42,114.67,129.72z"/>
			<path class="st2" d="M117.32,125.22c0.43-0.04,0.83-0.08,1.19-0.12c0.36-0.04,0.75-0.06,1.15-0.06c0.48,0,0.96,0.05,1.45,0.14
				c0.48,0.09,0.91,0.25,1.29,0.48c0.38,0.23,0.68,0.54,0.92,0.93c0.24,0.39,0.36,0.89,0.36,1.5c0,0.32-0.04,0.62-0.11,0.87
				c-0.07,0.26-0.17,0.49-0.29,0.69c-0.12,0.2-0.25,0.38-0.39,0.53c-0.14,0.15-0.29,0.28-0.43,0.38l2.05,4.05
				c-0.21,0.04-0.44,0.06-0.69,0.08c-0.25,0.02-0.48,0.03-0.68,0.03c-0.18,0-0.38-0.01-0.61-0.03c-0.23-0.02-0.44-0.04-0.61-0.08
				l-1.87-4.3l0.12-0.07c0.11-0.05,0.22-0.14,0.35-0.26c0.13-0.12,0.25-0.27,0.35-0.44c0.11-0.17,0.2-0.36,0.28-0.57
				c0.08-0.21,0.11-0.43,0.11-0.66c0-0.44-0.12-0.76-0.37-0.96c-0.25-0.2-0.55-0.3-0.91-0.3c-0.09,0-0.16,0-0.22,0.01
				c-0.06,0.01-0.1,0.02-0.12,0.03v7.52c-0.46,0.08-0.85,0.12-1.14,0.12c-0.32,0-0.71-0.04-1.17-0.12V125.22z"/>
			<path class="st2" d="M131.11,129.72c0,0.31-0.04,0.65-0.12,1.03h-2.54v1.87h3.3c0.08,0.37,0.12,0.7,0.12,1
				c0,0.32-0.04,0.67-0.12,1.04h-5.62v-9.45h5.54c0.04,0.19,0.06,0.37,0.08,0.54c0.02,0.17,0.03,0.32,0.03,0.47
				c0,0.29-0.04,0.63-0.1,1.04h-3.22v1.45h2.54C131.07,129.08,131.11,129.42,131.11,129.72z"/>
		</g>
		<g>
			<g>
				<polygon class="st1" points="93.93,139.81 94.68,141.33 96.36,141.57 95.14,142.76 95.43,144.43 93.93,143.64 92.43,144.43 
					92.72,142.76 91.5,141.57 93.18,141.33 				"/>
			</g>
			<g>
				<polygon class="st1" points="100.57,139.81 101.32,141.33 103,141.57 101.79,142.76 102.07,144.43 100.57,143.64 99.07,144.43 
					99.36,142.76 98.14,141.57 99.82,141.33 				"/>
			</g>
			<g>
				<polygon class="st1" points="107.21,139.81 107.96,141.33 109.64,141.57 108.43,142.76 108.71,144.43 107.21,143.64 
					105.71,144.43 106,142.76 104.79,141.57 106.46,141.33 				"/>
			</g>
		</g>
		<g>
			<path class="st1" d="M75.21,116.62c0.08,0.16,0.14,0.33,0.19,0.5c0.05,0.17,0.09,0.35,0.11,0.52c-0.3,0.11-0.58,0.18-0.82,0.22
				c-0.24,0.04-0.5,0.05-0.78,0.05c-0.5,0-0.93-0.08-1.31-0.24c-0.37-0.16-0.69-0.39-0.94-0.67c-0.25-0.29-0.45-0.63-0.57-1.03
				c-0.13-0.4-0.19-0.83-0.19-1.3c0-0.47,0.07-0.9,0.2-1.3c0.13-0.4,0.33-0.75,0.58-1.04c0.25-0.29,0.57-0.52,0.94-0.68
				c0.37-0.16,0.79-0.25,1.27-0.25c0.28,0,0.54,0.02,0.77,0.05c0.24,0.03,0.49,0.11,0.77,0.22c-0.01,0.17-0.05,0.35-0.11,0.51
				c-0.06,0.17-0.12,0.33-0.19,0.5c-0.2-0.07-0.39-0.12-0.54-0.15c-0.16-0.03-0.34-0.04-0.56-0.04c-0.56,0-0.99,0.18-1.29,0.55
				c-0.3,0.36-0.45,0.91-0.45,1.62c0,1.42,0.6,2.14,1.81,2.14c0.22,0,0.41-0.01,0.57-0.04S75.01,116.69,75.21,116.62z"/>
			<path class="st1" d="M78.77,117.92c-0.47,0-0.88-0.08-1.23-0.25c-0.34-0.16-0.63-0.39-0.85-0.68c-0.22-0.29-0.39-0.63-0.5-1.02
				c-0.11-0.39-0.16-0.83-0.16-1.29c0-0.47,0.05-0.9,0.16-1.3c0.11-0.4,0.27-0.75,0.5-1.04c0.22-0.29,0.5-0.52,0.85-0.68
				c0.34-0.16,0.75-0.25,1.23-0.25c0.47,0,0.88,0.08,1.23,0.25c0.34,0.16,0.63,0.39,0.85,0.68c0.22,0.29,0.39,0.64,0.5,1.04
				c0.11,0.4,0.16,0.83,0.16,1.3c0,0.47-0.05,0.9-0.16,1.29c-0.11,0.39-0.27,0.74-0.5,1.02c-0.22,0.29-0.5,0.52-0.85,0.68
				C79.65,117.84,79.24,117.92,78.77,117.92z M78.77,116.85c0.91,0,1.36-0.72,1.36-2.17c0-0.72-0.11-1.27-0.33-1.63
				c-0.22-0.36-0.56-0.54-1.02-0.54c-0.92,0-1.38,0.72-1.38,2.17C77.4,116.13,77.86,116.85,78.77,116.85z"/>
			<path class="st1" d="M82.74,111.52c0.23-0.04,0.46-0.05,0.67-0.05c0.23,0,0.45,0.02,0.67,0.05l1.45,3.61l1.49-3.61
				c0.18-0.04,0.38-0.05,0.6-0.05c0.22,0,0.43,0.02,0.64,0.05l0.3,6.3c-0.22,0.04-0.43,0.05-0.63,0.05c-0.2,0-0.39-0.02-0.59-0.05
				l-0.16-4.28l-1.28,2.96c-0.08,0.01-0.17,0.02-0.25,0.03c-0.09,0.01-0.18,0.01-0.26,0.01c-0.08,0-0.15,0-0.23-0.01
				c-0.08-0.01-0.15-0.02-0.24-0.04l-1.19-3.02l-0.12,4.34c-0.19,0.04-0.37,0.05-0.54,0.05c-0.19,0-0.38-0.02-0.58-0.05
				L82.74,111.52z"/>
			<path class="st1" d="M89.72,111.52c0.22-0.04,0.43-0.05,0.64-0.05c0.21,0,0.43,0.02,0.65,0.05v6.3
				c-0.22,0.04-0.44,0.05-0.64,0.05c-0.22,0-0.43-0.02-0.65-0.05V111.52z"/>
			<path class="st1" d="M92.23,111.52c0.18-0.04,0.35-0.05,0.52-0.05c0.18,0,0.36,0.02,0.54,0.05l2.44,4.01v-4.01
				c0.21-0.04,0.41-0.05,0.6-0.05c0.18,0,0.36,0.02,0.53,0.05v6.3c-0.19,0.04-0.36,0.05-0.51,0.05c-0.16,0-0.34-0.02-0.53-0.05
				l-2.45-4v4c-0.19,0.04-0.38,0.05-0.57,0.05c-0.19,0-0.38-0.02-0.56-0.05V111.52z"/>
			<path class="st1" d="M101.55,114.55c0.22-0.04,0.43-0.05,0.63-0.05c0.2,0,0.42,0.02,0.64,0.05v3.09
				c-0.3,0.11-0.62,0.18-0.95,0.22s-0.62,0.06-0.86,0.06c-0.51,0-0.96-0.08-1.35-0.24c-0.38-0.16-0.71-0.39-0.96-0.67
				c-0.26-0.29-0.45-0.63-0.58-1.03c-0.13-0.4-0.19-0.83-0.19-1.3c0-0.47,0.07-0.9,0.2-1.3c0.13-0.4,0.33-0.75,0.58-1.04
				c0.25-0.29,0.57-0.52,0.94-0.68c0.37-0.16,0.79-0.25,1.27-0.25c0.28,0,0.54,0.02,0.78,0.05c0.24,0.03,0.5,0.11,0.76,0.22
				c-0.01,0.17-0.05,0.35-0.11,0.51c-0.06,0.17-0.12,0.33-0.19,0.5c-0.2-0.07-0.39-0.12-0.54-0.15c-0.16-0.03-0.34-0.04-0.56-0.04
				c-0.56,0-0.99,0.18-1.29,0.55c-0.3,0.36-0.45,0.91-0.45,1.62c0,0.72,0.15,1.25,0.45,1.61c0.3,0.35,0.74,0.53,1.31,0.53
				c0.1,0,0.19-0.01,0.27-0.02c0.08-0.01,0.15-0.02,0.21-0.03V114.55z"/>
			<path class="st1" d="M107.01,114.9c-0.2-0.08-0.38-0.16-0.53-0.25c-0.16-0.09-0.29-0.2-0.4-0.32c-0.11-0.12-0.2-0.28-0.26-0.45
				c-0.06-0.17-0.09-0.38-0.09-0.63c0-0.3,0.05-0.56,0.15-0.79c0.1-0.23,0.25-0.42,0.43-0.57c0.19-0.16,0.41-0.27,0.67-0.35
				c0.26-0.08,0.56-0.12,0.88-0.12c0.3,0,0.58,0.03,0.84,0.08c0.26,0.05,0.53,0.13,0.82,0.23c-0.04,0.34-0.13,0.67-0.28,1
				c-0.09-0.04-0.18-0.07-0.27-0.1c-0.09-0.04-0.19-0.06-0.29-0.09c-0.1-0.02-0.22-0.04-0.35-0.06c-0.13-0.01-0.27-0.02-0.44-0.02
				c-0.1,0-0.2,0.01-0.3,0.03c-0.1,0.02-0.19,0.05-0.28,0.1s-0.15,0.12-0.2,0.21c-0.05,0.09-0.08,0.21-0.08,0.35
				c0,0.12,0.02,0.21,0.06,0.29c0.04,0.08,0.1,0.15,0.17,0.2c0.07,0.06,0.15,0.1,0.24,0.14c0.09,0.04,0.17,0.07,0.26,0.11l0.53,0.2
				c0.22,0.09,0.42,0.18,0.6,0.27c0.18,0.09,0.33,0.21,0.46,0.35c0.12,0.14,0.22,0.3,0.29,0.5c0.07,0.2,0.11,0.44,0.11,0.72
				c0,0.3-0.05,0.57-0.16,0.82c-0.11,0.25-0.26,0.46-0.47,0.63c-0.2,0.17-0.46,0.31-0.76,0.41c-0.3,0.1-0.65,0.15-1.04,0.15
				c-0.19,0-0.37-0.01-0.52-0.02c-0.15-0.01-0.3-0.03-0.43-0.06c-0.14-0.03-0.27-0.06-0.41-0.1c-0.13-0.04-0.27-0.09-0.42-0.15
				c0.02-0.17,0.05-0.35,0.1-0.53c0.05-0.18,0.1-0.37,0.17-0.56c0.25,0.1,0.48,0.17,0.69,0.22c0.22,0.05,0.45,0.07,0.69,0.07
				c0.37,0,0.66-0.07,0.87-0.21c0.21-0.14,0.32-0.35,0.32-0.63c0-0.14-0.03-0.26-0.08-0.35c-0.05-0.09-0.11-0.17-0.19-0.24
				c-0.08-0.06-0.17-0.12-0.27-0.16c-0.1-0.04-0.2-0.09-0.31-0.13L107.01,114.9z"/>
			<path class="st1" d="M113.25,117.92c-0.47,0-0.88-0.08-1.23-0.25c-0.34-0.16-0.63-0.39-0.85-0.68c-0.22-0.29-0.39-0.63-0.5-1.02
				c-0.11-0.39-0.16-0.83-0.16-1.29c0-0.47,0.05-0.9,0.16-1.3c0.11-0.4,0.27-0.75,0.5-1.04c0.22-0.29,0.5-0.52,0.85-0.68
				c0.34-0.16,0.75-0.25,1.23-0.25c0.47,0,0.88,0.08,1.23,0.25c0.34,0.16,0.63,0.39,0.85,0.68c0.22,0.29,0.39,0.64,0.5,1.04
				c0.11,0.4,0.16,0.83,0.16,1.3c0,0.47-0.05,0.9-0.16,1.29c-0.11,0.39-0.27,0.74-0.5,1.02c-0.22,0.29-0.5,0.52-0.85,0.68
				C114.13,117.84,113.72,117.92,113.25,117.92z M113.25,116.85c0.91,0,1.36-0.72,1.36-2.17c0-0.72-0.11-1.27-0.33-1.63
				c-0.22-0.36-0.56-0.54-1.02-0.54c-0.92,0-1.38,0.72-1.38,2.17C111.88,116.13,112.34,116.85,113.25,116.85z"/>
			<path class="st1" d="M119.61,117.92c-0.47,0-0.88-0.08-1.23-0.25c-0.34-0.16-0.63-0.39-0.85-0.68c-0.22-0.29-0.39-0.63-0.5-1.02
				c-0.11-0.39-0.16-0.83-0.16-1.29c0-0.47,0.05-0.9,0.16-1.3c0.11-0.4,0.27-0.75,0.5-1.04c0.22-0.29,0.5-0.52,0.85-0.68
				c0.34-0.16,0.75-0.25,1.23-0.25c0.47,0,0.88,0.08,1.23,0.25c0.34,0.16,0.63,0.39,0.85,0.68c0.22,0.29,0.39,0.64,0.5,1.04
				c0.11,0.4,0.16,0.83,0.16,1.3c0,0.47-0.05,0.9-0.16,1.29c-0.11,0.39-0.27,0.74-0.5,1.02c-0.22,0.29-0.5,0.52-0.85,0.68
				C120.49,117.84,120.08,117.92,119.61,117.92z M119.61,116.85c0.91,0,1.36-0.72,1.36-2.17c0-0.72-0.11-1.27-0.33-1.63
				c-0.22-0.36-0.56-0.54-1.02-0.54c-0.92,0-1.38,0.72-1.38,2.17C118.24,116.13,118.7,116.85,119.61,116.85z"/>
			<path class="st1" d="M123.4,111.52c0.18-0.04,0.35-0.05,0.52-0.05c0.17,0,0.36,0.02,0.54,0.05l2.44,4.01v-4.01
				c0.21-0.04,0.41-0.05,0.6-0.05c0.18,0,0.36,0.02,0.53,0.05v6.3c-0.19,0.04-0.36,0.05-0.51,0.05c-0.16,0-0.34-0.02-0.53-0.05
				l-2.45-4v4c-0.19,0.04-0.38,0.05-0.57,0.05c-0.19,0-0.38-0.02-0.56-0.05V111.52z"/>
		</g>
		<g>
			<g>
				<circle class="st2" cx="143.55" cy="129.87" r="1.37"/>
			</g>
			<g>
				<circle class="st2" cx="57.6" cy="129.87" r="1.37"/>
			</g>
		</g>
	</g>
	<g>
		<g>
			<g>
				<g>
					<path class="st2" d="M70.42,109.23c-2.22,0-4.02-1.8-4.02-4.02V62.93h67.76v42.29c0,2.22-1.8,4.02-4.02,4.02H70.42z"/>
				</g>
				<g>
					<path class="st2" d="M132.66,64.43v37.08v3.57v0.14c0,1.39-1.13,2.52-2.52,2.52H70.42c-1.39,0-2.52-1.13-2.52-2.52v-0.14v-3.57
						V64.43h8.85h7.36h8.69h7.36h8.69h7.36h8.69h7.36H132.66L132.66,64.43z M135.66,61.43h-3h-0.4h-7.36h-8.69h-7.36h-8.69H92.8
						h-8.69h-7.36H67.9h-3v3v37.08v3.57v0.14c0,3.04,2.48,5.52,5.52,5.52h59.72c3.04,0,5.52-2.48,5.52-5.52v-0.14v-3.57V64.43V61.43
						L135.66,61.43z"/>
				</g>
			</g>
			<g>
				<g>
					<polygon class="st2" points="64.7,53.27 131.63,42.5 133.58,55.05 66.65,65.82 					"/>
				</g>
				<g>
					<path class="st2" d="M130.38,44.22l1.49,9.58l-35.83,5.76l-3.55,0.57l0,0l-8.58,1.38l-7.27,1.17v0l-8.74,1.41l-1.49-9.58
						l2.5-0.4l6-0.97v0l8.58-1.38l7.27-1.17h0l15.19-2.44l0.66-0.11L130.38,44.22L130.38,44.22z M132.88,40.78l-2.98,0.48
						l-23.76,3.82l-0.66,0.11l-15.19,2.44l-7.27,1.17l-8.58,1.38l-6,0.97l-2.5,0.4l-2.95,0.47l0.46,2.95l1.49,9.58l0.46,2.98
						l2.98-0.48l8.74-1.41l7.27-1.17l8.58-1.38l3.55-0.57l35.83-5.76l2.95-0.47l-0.46-2.95l-1.49-9.58L132.88,40.78L132.88,40.78z"
						/>
				</g>
			</g>
		</g>
		<g>
			<g>
				<rect x="67.9" y="64.43" class="st1" width="64.76" height="40.65"/>
			</g>
			<g>
				<g>
					<g>
						<polygon class="st2" points="122.92,74.78 116.09,74.78 123.14,65.78 129.97,65.78 						"/>
					</g>
				</g>
				<g>
					<g>
						<polygon class="st2" points="108.03,74.78 101.2,74.78 108.26,65.78 115.09,65.78 						"/>
					</g>
				</g>
				<g>
					<g>
						<polygon class="st2" points="93.14,74.78 86.32,74.78 93.37,65.78 100.2,65.78 						"/>
					</g>
				</g>
				<g>
					<g>
						<polygon class="st2" points="78.26,74.78 71.43,74.78 78.49,65.78 85.31,65.78 						"/>
					</g>
				</g>
			</g>
			<g>
				<path class="st0" d="M132.66,101.51H67.9v3.71c0,1.39,1.13,2.52,2.52,2.52h59.72c1.39,0,2.52-1.13,2.52-2.52V101.51z"/>
			</g>
			<g>
				<g>
					<polygon class="st1" points="130.38,44.22 66.41,54.51 67.9,64.09 131.87,53.8 					"/>
				</g>
				<g>
					<g>
						<g>
							<polygon class="st2" points="118.21,47.09 112.29,48.04 119.62,54.86 125.54,53.91 							"/>
						</g>
					</g>
					<g>
						<g>
							<polygon class="st2" points="105.3,49.17 99.38,50.12 106.71,56.94 112.63,55.99 							"/>
						</g>
					</g>
					<g>
						<g>
							<polygon class="st2" points="92.4,51.24 86.48,52.2 93.81,59.01 99.73,58.06 							"/>
						</g>
					</g>
					<g>
						<g>
							<polygon class="st2" points="79.49,53.32 73.57,54.27 80.9,61.09 86.82,60.14 							"/>
						</g>
					</g>
				</g>
			</g>
			<g>
				<g>
					<path class="st2" d="M129.91,82.87H70.65c-0.55,0-1-0.45-1-1c0-0.55,0.45-1,1-1h59.26c0.55,0,1,0.45,1,1
						C130.91,82.42,130.47,82.87,129.91,82.87z"/>
				</g>
				<g>
					<path class="st2" d="M129.91,87.67H70.65c-0.55,0-1-0.45-1-1c0-0.55,0.45-1,1-1h59.26c0.55,0,1,0.45,1,1
						C130.91,87.22,130.47,87.67,129.91,87.67z"/>
				</g>
				<g>
					<path class="st2" d="M129.91,92.47H70.65c-0.55,0-1-0.45-1-1c0-0.55,0.45-1,1-1h59.26c0.55,0,1,0.45,1,1
						C130.91,92.02,130.47,92.47,129.91,92.47z"/>
				</g>
			</g>
			<g>
				<path class="st0" d="M109.93,93.69H90.64c-0.84,0-1.52-0.68-1.52-1.52v-11c0-0.84,0.68-1.52,1.52-1.52h19.29
					c0.84,0,1.52,0.68,1.52,1.52v11C111.45,93.01,110.77,93.69,109.93,93.69z"/>
				<path class="st2" d="M109.93,94.69H90.64c-1.39,0-2.52-1.13-2.52-2.52v-11c0-1.39,1.13-2.52,2.52-2.52h19.29
					c1.39,0,2.52,1.13,2.52,2.52v11C112.45,93.56,111.32,94.69,109.93,94.69z M90.64,80.65c-0.29,0-0.52,0.23-0.52,0.52v11
					c0,0.29,0.23,0.52,0.52,0.52h19.29c0.29,0,0.52-0.23,0.52-0.52v-11c0-0.29-0.23-0.52-0.52-0.52H90.64z"/>
			</g>
		</g>
	</g>
</g>
</svg>
